<svg version="1.1" viewBox="0.0 0.0 960.0 720.0" fill="none" stroke="none" stroke-linecap="square" stroke-miterlimit="10" xmlns:xlink="http://www.w3.org/1999/xlink" xmlns="http://www.w3.org/2000/svg"><clipPath id="p.0"><path d="m0 0l960.0 0l0 720.0l-960.0 0l0 -720.0z" clip-rule="nonzero"/></clipPath><g clip-path="url(#p.0)"><path fill="#000000" fill-opacity="0.0" d="m0 0l960.0 0l0 720.0l-960.0 0z" fill-rule="evenodd"/><path fill="#000000" fill-opacity="0.0" d="m146.09448 178.51968l667.81104 0l0 362.9606l-667.81104 0z" fill-rule="evenodd"/><path fill="#000000" d="m359.35156 226.66968q-3.046875 0 -5.703125 -0.984375q-2.65625 -1.0 -4.625 -2.875q-1.9375 -1.828125 -3.046875 -4.53125q-1.109375 -2.71875 -1.109375 -5.953125q0 -3.21875 1.125 -5.96875q1.125 -2.75 3.15625 -4.75q1.984375 -1.984375 4.78125 -3.0625q2.796875 -1.078125 5.96875 -1.078125q2.3125 0 4.203125 0.5625q1.890625 0.546875 3.203125 1.25l1.21875 -1.078125l1.6875 0l0.1875 10.125l-1.71875 0q-1.46875 -4.640625 -3.53125 -6.796875q-2.046875 -2.171875 -4.984375 -2.171875q-3.671875 0 -5.59375 3.234375q-1.90625 3.234375 -1.90625 9.0625q0 3.3125 0.640625 5.640625q0.65625 2.328125 1.71875 3.765625q1.125 1.484375 2.671875 2.171875q1.546875 0.6875 3.421875 0.6875q2.734375 0 4.875 -1.484375q2.140625 -1.484375 3.890625 -4.484375l1.6875 1.015625q-0.84375 1.71875 -1.921875 3.078125q-1.078125 1.359375 -2.484375 2.328125q-1.53125 1.078125 -3.40625 1.6875q-1.859375 0.609375 -4.40625 0.609375zm33.816406 -17.828125q1.4375 1.359375 2.203125 3.234375q0.765625 1.875 0.765625 4.0625q0 2.15625 -0.75 4.09375q-0.75 1.921875 -2.203125 3.28125q-1.546875 1.46875 -3.6875 2.25q-2.125 0.78125 -4.890625 0.78125q-2.375 0 -4.375 -0.6875q-2.0 -0.6875 -3.546875 -2.046875q-1.484375 -1.3125 -2.34375 -3.234375q-0.859375 -1.921875 -0.859375 -4.3125q0 -2.34375 0.75 -4.15625q0.75 -1.828125 2.25 -3.265625q1.453125 -1.359375 3.5625 -2.109375q2.125 -0.75 4.75 -0.75q2.734375 0 4.8125 0.75q2.078125 0.75 3.5625 2.109375zm-5.0 13.546875q0.421875 -1.09375 0.625 -2.65625q0.21875 -1.5625 0.21875 -3.640625q0 -1.359375 -0.203125 -3.109375q-0.1875 -1.765625 -0.578125 -2.78125q-0.46875 -1.234375 -1.3125 -1.9375q-0.828125 -0.703125 -2.09375 -0.703125q-1.390625 0 -2.21875 0.765625q-0.828125 0.75 -1.28125 1.96875q-0.40625 1.109375 -0.5625 2.609375q-0.15625 1.484375 -0.15625 3.109375q0 2.125 0.140625 3.53125q0.140625 1.390625 0.65625 2.796875q0.453125 1.21875 1.296875 1.921875q0.84375 0.703125 2.125 0.703125q1.171875 0 2.015625 -0.65625q0.84375 -0.65625 1.328125 -1.921875zm36.273438 3.53125l-11.765625 0l0 -1.421875q0.375 -0.046875 0.890625 -0.09375q0.53125 -0.0625 0.8125 -0.203125q0.40625 -0.21875 0.578125 -0.625q0.1875 -0.40625 0.1875 -1.21875l0 -9.140625q0 -1.984375 -0.734375 -2.984375q-0.734375 -1.015625 -2.15625 -1.015625q-0.78125 0 -1.46875 0.234375q-0.671875 0.234375 -1.3125 0.6875q-0.5625 0.390625 -0.90625 0.796875q-0.34375 0.40625 -0.578125 0.71875l0 10.5q0 0.671875 0.1875 1.140625q0.203125 0.453125 0.65625 0.6875q0.3125 0.171875 0.78125 0.3125q0.46875 0.140625 0.921875 0.203125l0 1.421875l-11.875 0l0 -1.421875q0.484375 -0.046875 0.984375 -0.109375q0.5 -0.078125 0.84375 -0.1875q0.625 -0.21875 0.859375 -0.65625q0.234375 -0.453125 0.234375 -1.1875l0 -11.359375q0 -0.609375 -0.3125 -1.1875q-0.3125 -0.59375 -0.8125 -0.96875q-0.359375 -0.234375 -0.90625 -0.390625q-0.53125 -0.15625 -1.171875 -0.203125l0 -1.4375l9.3125 -0.5l0.296875 0.296875l0 2.828125l0.078125 0q0.546875 -0.484375 1.328125 -1.171875q0.78125 -0.6875 1.453125 -1.109375q0.71875 -0.46875 1.890625 -0.796875q1.171875 -0.34375 2.5 -0.34375q3.1875 0 4.765625 1.8125q1.59375 1.796875 1.59375 4.796875l0 9.5625q0 0.71875 0.21875 1.15625q0.21875 0.421875 0.796875 0.6875q0.3125 0.125 0.765625 0.265625q0.46875 0.140625 1.0625 0.203125l0 1.421875zm27.597656 0l-11.765625 0l0 -1.421875q0.375 -0.046875 0.890625 -0.09375q0.53125 -0.0625 0.8125 -0.203125q0.40625 -0.21875 0.578125 -0.625q0.1875 -0.40625 0.1875 -1.21875l0 -9.140625q0 -1.984375 -0.734375 -2.984375q-0.734375 -1.015625 -2.15625 -1.015625q-0.78125 0 -1.46875 0.234375q-0.671875 0.234375 -1.3125 0.6875q-0.5625 0.390625 -0.90625 0.796875q-0.34375 0.40625 -0.578125 0.71875l0 10.5q0 0.671875 0.1875 1.140625q0.203125 0.453125 0.65625 0.6875q0.3125 0.171875 0.78125 0.3125q0.46875 0.140625 0.921875 0.203125l0 1.421875l-11.875 0l0 -1.421875q0.484375 -0.046875 0.984375 -0.109375q0.5 -0.078125 0.84375 -0.1875q0.625 -0.21875 0.859375 -0.65625q0.234375 -0.453125 0.234375 -1.1875l0 -11.359375q0 -0.609375 -0.3125 -1.1875q-0.3125 -0.59375 -0.8125 -0.96875q-0.359375 -0.234375 -0.90625 -0.390625q-0.53125 -0.15625 -1.171875 -0.203125l0 -1.4375l9.3125 -0.5l0.296875 0.296875l0 2.828125l0.078125 0q0.546875 -0.484375 1.328125 -1.171875q0.78125 -0.6875 1.453125 -1.109375q0.71875 -0.46875 1.890625 -0.796875q1.171875 -0.34375 2.5 -0.34375q3.1875 0 4.765625 1.8125q1.59375 1.796875 1.59375 4.796875l0 9.5625q0 0.71875 0.21875 1.15625q0.21875 0.421875 0.796875 0.6875q0.3125 0.125 0.765625 0.265625q0.46875 0.140625 1.0625 0.203125l0 1.421875zm14.175781 -8.5l-11.84375 0l0 -4.3125l11.84375 0l0 4.3125zm25.109375 8.09375q-0.859375 0.359375 -2.03125 0.671875q-1.171875 0.328125 -2.46875 0.328125q-2.40625 0 -3.546875 -0.71875q-1.125 -0.71875 -1.53125 -2.046875l-0.125 0q-0.65625 0.671875 -1.28125 1.140625q-0.609375 0.46875 -1.3125 0.796875q-0.921875 0.4375 -1.78125 0.640625q-0.84375 0.203125 -2.359375 0.203125q-2.265625 0 -3.875 -1.34375q-1.59375 -1.34375 -1.59375 -3.546875q0 -1.265625 0.34375 -2.15625q0.359375 -0.890625 1.0 -1.578125q0.59375 -0.625 1.359375 -1.03125q0.765625 -0.40625 1.6875 -0.765625q1.765625 -0.640625 4.21875 -1.328125q2.46875 -0.703125 3.59375 -1.25l0 -1.875q0 -0.484375 -0.078125 -1.28125q-0.078125 -0.796875 -0.328125 -1.34375q-0.28125 -0.625 -0.875 -1.046875q-0.578125 -0.4375 -1.53125 -0.4375q-0.859375 0 -1.4375 0.25q-0.578125 0.234375 -0.921875 0.484375q0.0625 0.390625 0.328125 1.203125q0.28125 0.796875 0.28125 1.53125q0 0.328125 -0.1875 0.828125q-0.171875 0.5 -0.5 0.796875q-0.453125 0.390625 -1.015625 0.609375q-0.546875 0.203125 -1.703125 0.203125q-1.640625 0 -2.484375 -0.78125q-0.828125 -0.796875 -0.828125 -2.0625q0 -1.09375 0.859375 -1.953125q0.875 -0.875 2.125 -1.453125q1.234375 -0.578125 2.828125 -0.890625q1.609375 -0.328125 2.96875 -0.328125q1.890625 0 3.46875 0.21875q1.59375 0.21875 2.859375 0.921875q1.21875 0.6875 1.921875 1.984375q0.71875 1.296875 0.71875 3.390625q0 2.203125 -0.09375 5.234375q-0.078125 3.03125 -0.078125 3.984375q0 0.875 0.25 1.390625q0.265625 0.5 0.8125 0.765625q0.34375 0.15625 1.046875 0.1875q0.71875 0.015625 1.296875 0.015625l0 1.4375zm-9.703125 -10.1875q-1.09375 0.375 -2.171875 0.859375q-1.0625 0.46875 -1.75 1.0q-0.71875 0.546875 -1.140625 1.40625q-0.40625 0.84375 -0.40625 2.0q0 1.515625 0.6875 2.203125q0.703125 0.6875 1.71875 0.6875q1.078125 0 1.765625 -0.4375q0.6875 -0.453125 1.21875 -1.09375l0.078125 -6.625zm22.359375 11.21875q-2.703125 0 -4.796875 -0.78125q-2.078125 -0.796875 -3.421875 -2.171875q-1.34375 -1.390625 -2.015625 -3.28125q-0.65625 -1.890625 -0.65625 -4.125q0 -2.03125 0.8125 -3.859375q0.8125 -1.84375 2.1875 -3.21875q1.4375 -1.4375 3.546875 -2.28125q2.125 -0.84375 4.6875 -0.84375q3.59375 0 5.671875 1.359375q2.09375 1.34375 2.09375 3.65625q0 1.40625 -0.75 2.265625q-0.734375 0.859375 -2.546875 0.859375q-1.46875 0 -2.453125 -0.703125q-0.984375 -0.703125 -0.984375 -1.84375q0 -0.953125 0.3125 -1.890625q0.3125 -0.9375 0.375 -1.421875q-0.21875 -0.359375 -0.5625 -0.53125q-0.328125 -0.1875 -1.03125 -0.1875q-0.875 0 -1.59375 0.40625q-0.71875 0.40625 -1.34375 1.4375q-0.609375 0.984375 -0.96875 2.625q-0.359375 1.640625 -0.359375 3.9375q0 3.484375 1.625 5.609375q1.625 2.125 3.890625 2.125q2.171875 0 3.453125 -0.953125q1.28125 -0.96875 2.28125 -2.75l1.453125 1.015625q-0.59375 1.1875 -1.4375 2.171875q-0.84375 0.984375 -2.015625 1.75q-1.234375 0.796875 -2.5 1.203125q-1.265625 0.421875 -2.953125 0.421875zm24.640625 -1.53125q-1.25 0.546875 -2.6875 0.984375q-1.421875 0.453125 -3.46875 0.453125q-3.046875 0 -4.53125 -1.484375q-1.46875 -1.484375 -1.46875 -4.25l0 -11.984375l-3.515625 0l0 -2.109375l3.59375 0l0 -5.921875l6.34375 0l0 5.921875l5.46875 0l0 2.109375l-5.421875 0l0 10.703125q0 2.28125 0.625 3.25q0.640625 0.953125 2.28125 0.953125q0.53125 0 1.46875 -0.078125q0.9375 -0.078125 1.3125 -0.1875l0 1.640625zm13.7109375 0.90625l-12.34375 0l0 -1.421875q0.5 -0.046875 0.984375 -0.09375q0.5 -0.0625 0.84375 -0.203125q0.625 -0.234375 0.875 -0.671875q0.265625 -0.4375 0.265625 -1.171875l0 -11.359375q0 -0.6875 -0.3125 -1.203125q-0.3125 -0.515625 -0.78125 -0.828125q-0.359375 -0.234375 -1.078125 -0.453125q-0.703125 -0.21875 -1.296875 -0.265625l0 -1.4375l9.578125 -0.5l0.296875 0.296875l0 15.5q0 0.6875 0.28125 1.171875q0.296875 0.46875 0.84375 0.703125q0.390625 0.171875 0.859375 0.3125q0.46875 0.140625 0.984375 0.203125l0 1.421875zm-2.859375 -26.640625q0 1.484375 -1.140625 2.53125q-1.140625 1.046875 -2.703125 1.046875q-1.578125 0 -2.734375 -1.046875q-1.140625 -1.046875 -1.140625 -2.53125q0 -1.484375 1.140625 -2.53125q1.15625 -1.0625 2.734375 -1.0625q1.578125 0 2.703125 1.0625q1.140625 1.046875 1.140625 2.53125zm24.59375 9.5625q1.4375 1.359375 2.203125 3.234375q0.765625 1.875 0.765625 4.0625q0 2.15625 -0.75 4.09375q-0.75 1.921875 -2.203125 3.28125q-1.546875 1.46875 -3.6875 2.25q-2.125 0.78125 -4.890625 0.78125q-2.375 0 -4.375 -0.6875q-2.0 -0.6875 -3.546875 -2.046875q-1.484375 -1.3125 -2.34375 -3.234375q-0.859375 -1.921875 -0.859375 -4.3125q0 -2.34375 0.75 -4.15625q0.75 -1.828125 2.25 -3.265625q1.453125 -1.359375 3.5625 -2.109375q2.125 -0.75 4.75 -0.75q2.734375 0 4.8125 0.75q2.078125 0.75 3.5625 2.109375zm-5.0 13.546875q0.421875 -1.09375 0.625 -2.65625q0.21875 -1.5625 0.21875 -3.640625q0 -1.359375 -0.203125 -3.109375q-0.1875 -1.765625 -0.578125 -2.78125q-0.46875 -1.234375 -1.3125 -1.9375q-0.828125 -0.703125 -2.09375 -0.703125q-1.390625 0 -2.21875 0.765625q-0.828125 0.75 -1.28125 1.96875q-0.40625 1.109375 -0.5625 2.609375q-0.15625 1.484375 -0.15625 3.109375q0 2.125 0.140625 3.53125q0.140625 1.390625 0.65625 2.796875q0.453125 1.21875 1.296875 1.921875q0.84375 0.703125 2.125 0.703125q1.171875 0 2.015625 -0.65625q0.84375 -0.65625 1.328125 -1.921875zm36.273438 3.53125l-11.765625 0l0 -1.421875q0.375 -0.046875 0.890625 -0.09375q0.53125 -0.0625 0.8125 -0.203125q0.40625 -0.21875 0.578125 -0.625q0.1875 -0.40625 0.1875 -1.21875l0 -9.140625q0 -1.984375 -0.734375 -2.984375q-0.734375 -1.015625 -2.15625 -1.015625q-0.78125 0 -1.46875 0.234375q-0.671875 0.234375 -1.3125 0.6875q-0.5625 0.390625 -0.90625 0.796875q-0.34375 0.40625 -0.578125 0.71875l0 10.5q0 0.671875 0.1875 1.140625q0.203125 0.453125 0.65625 0.6875q0.3125 0.171875 0.78125 0.3125q0.46875 0.140625 0.921875 0.203125l0 1.421875l-11.875 0l0 -1.421875q0.484375 -0.046875 0.984375 -0.109375q0.5 -0.078125 0.84375 -0.1875q0.625 -0.21875 0.859375 -0.65625q0.234375 -0.453125 0.234375 -1.1875l0 -11.359375q0 -0.609375 -0.3125 -1.1875q-0.3125 -0.59375 -0.8125 -0.96875q-0.359375 -0.234375 -0.90625 -0.390625q-0.53125 -0.15625 -1.171875 -0.203125l0 -1.4375l9.3125 -0.5l0.296875 0.296875l0 2.828125l0.078125 0q0.546875 -0.484375 1.328125 -1.171875q0.78125 -0.6875 1.453125 -1.109375q0.71875 -0.46875 1.890625 -0.796875q1.171875 -0.34375 2.5 -0.34375q3.1875 0 4.765625 1.8125q1.59375 1.796875 1.59375 4.796875l0 9.5625q0 0.71875 0.21875 1.15625q0.21875 0.421875 0.796875 0.6875q0.3125 0.125 0.765625 0.265625q0.46875 0.140625 1.0625 0.203125l0 1.421875zm10.847656 0.671875q-1.890625 0 -3.703125 -0.5625q-1.796875 -0.5625 -2.796875 -1.1875l-0.578125 1.328125l-1.53125 0l-0.25 -7.28125l1.421875 0q0.296875 0.875 0.96875 1.984375q0.6875 1.09375 1.578125 1.984375q0.90625 0.875 2.09375 1.484375q1.1875 0.59375 2.53125 0.59375q1.78125 0 2.640625 -0.6875q0.875 -0.6875 0.875 -2.140625q0 -0.78125 -0.390625 -1.28125q-0.390625 -0.515625 -1.078125 -0.890625q-0.765625 -0.390625 -1.671875 -0.65625q-0.90625 -0.28125 -2.234375 -0.671875q-1.328125 -0.390625 -2.28125 -0.78125q-0.9375 -0.40625 -1.953125 -1.265625q-0.875 -0.765625 -1.40625 -1.828125q-0.53125 -1.078125 -0.53125 -2.5625q0 -2.75 2.3125 -4.453125q2.3125 -1.703125 6.0625 -1.703125q1.78125 0 3.265625 0.359375q1.5 0.359375 2.515625 0.796875l0.421875 -1.15625l1.484375 0l0.3125 6.65625l-1.390625 0q-0.6875 -2.03125 -2.34375 -3.5q-1.65625 -1.46875 -3.578125 -1.46875q-1.5 0 -2.359375 0.625q-0.859375 0.625 -0.859375 1.734375q0 1.484375 1.25 2.15625q1.265625 0.65625 3.53125 1.234375q3.5 0.90625 5.109375 2.46875q1.625 1.546875 1.625 3.9375q0 3.203125 -2.515625 4.96875q-2.5 1.765625 -6.546875 1.765625z" fill-rule="nonzero"/><path fill="#000000" d="m334.79626 255.4678q-0.21875 0.03125 -0.59375 0.09375q-0.375 0.0625 -0.59375 0.171875q-0.28125 0.140625 -0.390625 0.390625q-0.109375 0.25 -0.109375 0.578125l0 1.0q0 1.09375 0 1.484375q0.015625 0.375 0.046875 0.625q-1.21875 0.546875 -2.421875 0.828125q-1.203125 0.296875 -2.359375 0.296875q-1.234375 0 -2.390625 -0.453125q-1.140625 -0.46875 -2.0 -1.328125q-0.859375 -0.859375 -1.375 -2.09375q-0.515625 -1.25 -0.515625 -2.78125q0 -1.46875 0.484375 -2.734375q0.5 -1.265625 1.390625 -2.1875q0.859375 -0.921875 2.0625 -1.421875q1.203125 -0.5 2.5625 -0.5q1.09375 0 1.90625 0.265625q0.8125 0.25 1.4375 0.625l0.359375 -0.609375l0.734375 0l0.078125 4.515625l-0.734375 0q-0.203125 -0.75 -0.484375 -1.46875q-0.28125 -0.734375 -0.71875 -1.296875q-0.453125 -0.578125 -1.09375 -0.921875q-0.640625 -0.34375 -1.53125 -0.34375q-0.984375 0 -1.75 0.40625q-0.765625 0.390625 -1.328125 1.171875q-0.546875 0.75 -0.859375 1.890625q-0.296875 1.125 -0.296875 2.515625q0 1.234375 0.296875 2.328125q0.296875 1.078125 0.859375 1.875q0.5625 0.8125 1.40625 1.28125q0.859375 0.453125 1.9375 0.453125q0.796875 0 1.453125 -0.234375q0.65625 -0.25 0.9375 -0.53125q0.078125 -0.46875 0.078125 -0.953125q0 -0.484375 0 -0.8125l0 -0.71875q0 -0.375 -0.109375 -0.671875q-0.09375 -0.296875 -0.421875 -0.4375q-0.296875 -0.140625 -0.8125 -0.203125q-0.515625 -0.0625 -0.8125 -0.09375l0 -0.65625l5.671875 0l0 0.65625zm7.652588 -2.65625q0 0.46875 -0.234375 0.828125q-0.21875 0.359375 -0.6875 0.359375q-0.515625 0 -0.78125 -0.265625q-0.265625 -0.265625 -0.265625 -0.578125q0 -0.203125 0.03125 -0.359375q0.03125 -0.171875 0.046875 -0.34375q-0.421875 0 -1.0 0.359375q-0.5625 0.34375 -0.96875 0.984375l0 5.21875q0 0.328125 0.125 0.53125q0.125 0.1875 0.390625 0.296875q0.21875 0.09375 0.578125 0.140625q0.359375 0.03125 0.625 0.0625l0 0.59375l-4.734375 0l0 -0.59375q0.203125 -0.03125 0.421875 -0.046875q0.234375 -0.015625 0.390625 -0.0625q0.265625 -0.09375 0.390625 -0.296875q0.125 -0.203125 0.125 -0.53125l0 -5.546875q0 -0.28125 -0.140625 -0.546875q-0.125 -0.28125 -0.375 -0.453125q-0.171875 -0.109375 -0.40625 -0.15625q-0.234375 -0.046875 -0.5 -0.0625l0 -0.59375l2.984375 -0.203125l0.125 0.125l0 1.265625l0.046875 0q0.5625 -0.734375 1.25 -1.109375q0.703125 -0.390625 1.265625 -0.390625q0.578125 0 0.9375 0.375q0.359375 0.375 0.359375 1.0zm9.517883 3.25q0 0.9375 -0.296875 1.859375q-0.296875 0.921875 -0.859375 1.546875q-0.625 0.734375 -1.453125 1.09375q-0.828125 0.34375 -1.859375 0.34375q-0.859375 0 -1.640625 -0.3125q-0.765625 -0.328125 -1.359375 -0.953125q-0.59375 -0.609375 -0.953125 -1.484375q-0.34375 -0.875 -0.34375 -1.96875q0 -2.109375 1.21875 -3.4375q1.234375 -1.34375 3.21875 -1.34375q1.875 0 3.09375 1.265625q1.234375 1.265625 1.234375 3.390625zm-1.875 0.015625q0 -0.6875 -0.140625 -1.4375q-0.140625 -0.765625 -0.40625 -1.296875q-0.296875 -0.5625 -0.78125 -0.90625q-0.46875 -0.34375 -1.140625 -0.34375q-0.703125 0 -1.203125 0.34375q-0.5 0.34375 -0.8125 0.953125q-0.28125 0.546875 -0.40625 1.265625q-0.125 0.703125 -0.125 1.375q0 0.875 0.140625 1.625q0.15625 0.734375 0.453125 1.3125q0.3125 0.59375 0.78125 0.921875q0.46875 0.328125 1.171875 0.328125q1.125 0 1.796875 -1.09375q0.671875 -1.109375 0.671875 -3.046875zm12.806885 4.40625l-2.921875 0.1875l-0.140625 -0.125l0 -1.140625l-0.046875 0q-0.21875 0.234375 -0.5 0.5q-0.265625 0.25 -0.625 0.46875q-0.40625 0.234375 -0.796875 0.359375q-0.375 0.140625 -1.078125 0.140625q-1.1875 0 -1.8125 -0.78125q-0.625 -0.78125 -0.625 -2.265625l0 -4.296875q0 -0.328125 -0.125 -0.546875q-0.125 -0.234375 -0.359375 -0.390625q-0.171875 -0.109375 -0.421875 -0.15625q-0.234375 -0.0625 -0.515625 -0.078125l0 -0.59375l3.0 -0.21875l0.140625 0.125l0 6.25q0 0.96875 0.4375 1.46875q0.4375 0.484375 1.046875 0.484375q0.5 0 0.890625 -0.15625q0.390625 -0.15625 0.65625 -0.359375q0.25 -0.1875 0.4375 -0.40625q0.1875 -0.21875 0.28125 -0.40625l0 -5.078125q0 -0.3125 -0.125 -0.53125q-0.125 -0.234375 -0.359375 -0.40625q-0.15625 -0.109375 -0.484375 -0.125q-0.328125 -0.03125 -0.71875 -0.046875l0 -0.59375l3.25 -0.21875l0.140625 0.125l0 7.140625q0 0.3125 0.125 0.53125q0.140625 0.21875 0.359375 0.375q0.171875 0.09375 0.390625 0.125q0.234375 0.03125 0.5 0.046875l0 0.59375zm9.309113 -7.765625q0.546875 0.640625 0.84375 1.484375q0.296875 0.84375 0.296875 1.921875q0 1.078125 -0.359375 1.953125q-0.359375 0.875 -0.9375 1.5q-0.609375 0.625 -1.359375 0.96875q-0.75 0.328125 -1.59375 0.328125q-0.796875 0 -1.328125 -0.1875q-0.515625 -0.171875 -0.84375 -0.421875l-0.078125 0l0 2.703125q0 0.328125 0.125 0.546875q0.140625 0.21875 0.40625 0.3125q0.21875 0.078125 0.625 0.15625q0.40625 0.078125 0.65625 0.09375l0 0.609375l-5.015625 0l0 -0.609375q0.28125 -0.015625 0.546875 -0.046875q0.265625 -0.03125 0.484375 -0.09375q0.265625 -0.09375 0.375 -0.328125q0.109375 -0.21875 0.109375 -0.53125l0 -9.546875q0 -0.28125 -0.140625 -0.53125q-0.125 -0.25 -0.34375 -0.40625q-0.171875 -0.109375 -0.46875 -0.171875q-0.28125 -0.0625 -0.5625 -0.078125l0 -0.59375l3.0625 -0.203125l0.125 0.109375l0 1.015625l0.078125 0.015625q0.46875 -0.546875 1.171875 -0.90625q0.703125 -0.375 1.390625 -0.375q0.84375 0 1.53125 0.359375q0.703125 0.359375 1.203125 0.953125zm-1.484375 6.46875q0.375 -0.5625 0.546875 -1.3125q0.171875 -0.75 0.171875 -1.671875q0 -0.671875 -0.15625 -1.375q-0.140625 -0.703125 -0.453125 -1.21875q-0.3125 -0.53125 -0.8125 -0.859375q-0.5 -0.328125 -1.203125 -0.328125q-0.671875 0 -1.140625 0.296875q-0.46875 0.296875 -0.828125 0.703125l0 5.3125q0.09375 0.25 0.28125 0.515625q0.1875 0.265625 0.40625 0.453125q0.28125 0.234375 0.609375 0.375q0.328125 0.140625 0.8125 0.140625q0.5 0 0.96875 -0.265625q0.484375 -0.28125 0.796875 -0.765625zm12.220703 4.78125q-0.859375 0 -1.578125 -0.21875q-0.703125 -0.21875 -1.203125 -0.578125q-0.515625 -0.359375 -0.796875 -0.84375q-0.28125 -0.46875 -0.28125 -0.96875q0 -0.453125 0.21875 -0.8125q0.21875 -0.359375 0.703125 -0.359375q0.546875 0 0.828125 0.28125q0.296875 0.265625 0.296875 0.609375q0 0.296875 -0.09375 0.734375q-0.09375 0.453125 -0.15625 0.640625q0.0625 0.078125 0.234375 0.21875q0.171875 0.140625 0.421875 0.25q0.28125 0.125 0.59375 0.203125q0.328125 0.09375 0.90625 0.09375q0.546875 0 1.046875 -0.1875q0.515625 -0.171875 0.90625 -0.578125q0.390625 -0.421875 0.609375 -0.984375q0.234375 -0.5625 0.234375 -1.46875q0 -0.484375 -0.109375 -0.96875q-0.109375 -0.484375 -0.390625 -0.84375q-0.28125 -0.359375 -0.765625 -0.546875q-0.484375 -0.203125 -1.234375 -0.203125l-1.1875 0l0 -1.046875l0.78125 0q1.265625 0 1.8125 -0.6875q0.5625 -0.6875 0.5625 -2.078125q0 -1.140625 -0.546875 -1.71875q-0.53125 -0.578125 -1.515625 -0.578125q-0.46875 0 -0.78125 0.109375q-0.296875 0.109375 -0.484375 0.21875q-0.234375 0.125 -0.390625 0.28125q-0.140625 0.15625 -0.203125 0.234375q0.0625 0.28125 0.140625 0.71875q0.09375 0.421875 0.09375 0.796875q0 0.34375 -0.28125 0.609375q-0.28125 0.265625 -0.84375 0.265625q-0.484375 0 -0.703125 -0.34375q-0.21875 -0.34375 -0.21875 -0.796875q0 -0.484375 0.25 -0.96875q0.265625 -0.5 0.796875 -0.921875q0.515625 -0.421875 1.265625 -0.6875q0.75 -0.265625 1.71875 -0.265625q1.125 0 1.84375 0.328125q0.734375 0.328125 1.15625 0.8125q0.421875 0.453125 0.5625 0.96875q0.15625 0.515625 0.15625 0.875q0 0.453125 -0.125 0.921875q-0.125 0.453125 -0.421875 0.84375q-0.3125 0.4375 -0.84375 0.78125q-0.515625 0.34375 -1.3125 0.5625l0 0.15625q0.515625 0.046875 1.09375 0.234375q0.578125 0.171875 1.046875 0.53125q0.484375 0.375 0.78125 0.96875q0.3125 0.578125 0.3125 1.484375q0 1.734375 -1.40625 2.828125q-1.390625 1.09375 -3.5 1.09375zm26.403168 -3.328125l-4.390625 0l0 -0.59375q0.21875 -0.03125 0.421875 -0.046875q0.21875 -0.015625 0.390625 -0.0625q0.25 -0.09375 0.375 -0.296875q0.125 -0.203125 0.125 -0.53125l0 -4.640625q0 -0.9375 -0.4375 -1.453125q-0.4375 -0.515625 -1.078125 -0.515625q-0.453125 0 -0.84375 0.140625q-0.390625 0.125 -0.71875 0.375q-0.265625 0.203125 -0.4375 0.4375q-0.171875 0.234375 -0.265625 0.375l0 5.1875q0 0.328125 0.109375 0.53125q0.109375 0.203125 0.375 0.3125q0.203125 0.078125 0.375 0.125q0.171875 0.03125 0.4375 0.0625l0 0.59375l-4.2968445 0l0 -0.59375q0.21875 -0.03125 0.40625 -0.046875q0.203125 -0.015625 0.359375 -0.0625q0.265625 -0.09375 0.375 -0.296875q0.125 -0.203125 0.125 -0.53125l0 -4.640625q0 -0.9375 -0.4375 -1.453125q-0.421875 -0.515625 -1.0625 -0.515625q-0.453125 0 -0.84375 0.140625q-0.390625 0.140625 -0.71875 0.390625q-0.265625 0.1875 -0.453125 0.4375q-0.171875 0.25 -0.265625 0.390625l0 5.140625q0 0.3125 0.125 0.53125q0.125 0.203125 0.390625 0.3125q0.1875 0.09375 0.375 0.140625q0.203125 0.03125 0.453125 0.0625l0 0.59375l-4.359375 0l0 -0.59375q0.203125 -0.03125 0.421875 -0.046875q0.234375 -0.015625 0.390625 -0.0625q0.265625 -0.09375 0.390625 -0.296875q0.125 -0.203125 0.125 -0.53125l0 -5.578125q0 -0.296875 -0.140625 -0.53125q-0.125 -0.234375 -0.375 -0.390625q-0.171875 -0.109375 -0.421875 -0.171875q-0.25 -0.078125 -0.53125 -0.09375l0 -0.59375l3.015625 -0.203125l0.125 0.125l0 1.296875l0.0625 0q0.21875 -0.234375 0.546875 -0.546875q0.328125 -0.3125 0.609375 -0.5q0.328125 -0.21875 0.796875 -0.359375q0.484375 -0.15625 1.046875 -0.15625q0.875 0 1.5 0.46875q0.6249695 0.46875 0.9062195 1.140625q0.328125 -0.3125 0.578125 -0.546875q0.25 -0.25 0.65625 -0.53125q0.34375 -0.234375 0.8125 -0.375q0.46875 -0.15625 1.046875 -0.15625q1.140625 0 1.796875 0.75q0.671875 0.75 0.671875 2.296875l0 4.5625q0 0.328125 0.109375 0.53125q0.109375 0.203125 0.375 0.3125q0.203125 0.078125 0.40625 0.125q0.203125 0.03125 0.46875 0.0625l0 0.59375zm10.667908 -0.15625l-2.921875 0.1875l-0.140625 -0.125l0 -1.140625l-0.046875 0q-0.21875 0.234375 -0.5 0.5q-0.265625 0.25 -0.625 0.46875q-0.40625 0.234375 -0.796875 0.359375q-0.375 0.140625 -1.078125 0.140625q-1.1875 0 -1.8125 -0.78125q-0.625 -0.78125 -0.625 -2.265625l0 -4.296875q0 -0.328125 -0.125 -0.546875q-0.125 -0.234375 -0.359375 -0.390625q-0.171875 -0.109375 -0.421875 -0.15625q-0.234375 -0.0625 -0.515625 -0.078125l0 -0.59375l3.0 -0.21875l0.140625 0.125l0 6.25q0 0.96875 0.4375 1.46875q0.4375 0.484375 1.046875 0.484375q0.5 0 0.890625 -0.15625q0.390625 -0.15625 0.65625 -0.359375q0.25 -0.1875 0.4375 -0.40625q0.1875 -0.21875 0.28125 -0.40625l0 -5.078125q0 -0.3125 -0.125 -0.53125q-0.125 -0.234375 -0.359375 -0.40625q-0.15625 -0.109375 -0.484375 -0.125q-0.328125 -0.03125 -0.71875 -0.046875l0 -0.59375l3.25 -0.21875l0.140625 0.125l0 7.140625q0 0.3125 0.125 0.53125q0.140625 0.21875 0.359375 0.375q0.171875 0.09375 0.390625 0.125q0.234375 0.03125 0.5 0.046875l0 0.59375zm7.043518 -4.25q0.359375 0.328125 0.5625 0.765625q0.203125 0.421875 0.203125 1.046875q0 1.25 -0.9375 2.046875q-0.921875 0.78125 -2.40625 0.78125q-0.796875 0 -1.453125 -0.28125q-0.65625 -0.28125 -0.9375 -0.515625l-0.1875 0.59375l-0.6875 0l-0.078125 -3.125l0.625 0q0.0625 0.359375 0.296875 0.828125q0.25 0.46875 0.578125 0.859375q0.359375 0.390625 0.859375 0.671875q0.5 0.265625 1.109375 0.265625q0.875 0 1.34375 -0.390625q0.484375 -0.390625 0.484375 -1.140625q0 -0.375 -0.15625 -0.65625q-0.140625 -0.28125 -0.4375 -0.484375q-0.296875 -0.21875 -0.734375 -0.375q-0.4375 -0.171875 -0.984375 -0.34375q-0.421875 -0.125 -0.953125 -0.34375q-0.515625 -0.21875 -0.890625 -0.53125q-0.40625 -0.3125 -0.65625 -0.765625q-0.25 -0.46875 -0.25 -1.109375q0 -1.09375 0.8125 -1.859375q0.828125 -0.765625 2.203125 -0.765625q0.53125 0 1.078125 0.140625q0.546875 0.125 0.890625 0.328125l0.21875 -0.484375l0.65625 0l0.125 2.890625l-0.625 0q-0.1875 -0.96875 -0.828125 -1.5625q-0.625 -0.609375 -1.53125 -0.609375q-0.75 0 -1.1875 0.375q-0.421875 0.375 -0.421875 0.890625q0 0.421875 0.140625 0.703125q0.140625 0.265625 0.421875 0.453125q0.28125 0.171875 0.6875 0.34375q0.421875 0.15625 1.03125 0.359375q0.59375 0.1875 1.125 0.453125q0.53125 0.25 0.890625 0.546875zm6.2806396 4.640625q-1.953125 0 -3.0625 -1.28125q-1.09375 -1.296875 -1.09375 -3.484375q0 -0.9375 0.296875 -1.765625q0.296875 -0.828125 0.859375 -1.5q0.53125 -0.640625 1.34375 -1.03125q0.8125 -0.40625 1.765625 -0.40625q1.328125 0 2.15625 0.640625q0.828125 0.625 0.828125 1.71875q0 0.453125 -0.21875 0.8125q-0.21875 0.34375 -0.71875 0.34375q-0.53125 0 -0.828125 -0.265625q-0.296875 -0.28125 -0.296875 -0.625q0 -0.40625 0.109375 -0.828125q0.109375 -0.4375 0.125 -0.640625q-0.171875 -0.28125 -0.5 -0.375q-0.3125 -0.09375 -0.6875 -0.09375q-0.4375 0 -0.84375 0.1875q-0.390625 0.171875 -0.765625 0.6875q-0.328125 0.453125 -0.546875 1.234375q-0.203125 0.765625 -0.203125 1.84375q0 1.6875 0.75 2.765625q0.75 1.0625 1.96875 1.0625q0.890625 0 1.484375 -0.421875q0.59375 -0.4375 1.109375 -1.296875l0.578125 0.390625q-0.59375 1.078125 -1.578125 1.703125q-0.984375 0.625 -2.03125 0.625zm8.518707 -0.234375l-4.375 0l0 -0.59375q0.203125 -0.03125 0.4375 -0.046875q0.25 -0.03125 0.40625 -0.0625q0.25 -0.09375 0.375 -0.296875q0.125 -0.203125 0.125 -0.53125l0 -10.40625q0 -0.328125 -0.140625 -0.609375q-0.140625 -0.28125 -0.359375 -0.453125q-0.171875 -0.109375 -0.609375 -0.203125q-0.4375 -0.09375 -0.703125 -0.109375l0 -0.578125l3.375 -0.203125l0.140625 0.125l0 12.328125q0 0.3125 0.109375 0.53125q0.125 0.203125 0.390625 0.3125q0.203125 0.09375 0.390625 0.140625q0.203125 0.03125 0.4375 0.0625l0 0.59375zm9.119415 -2.109375q-0.5625 1.078125 -1.515625 1.71875q-0.953125 0.625 -2.171875 0.625q-1.09375 0 -1.90625 -0.375q-0.8125 -0.390625 -1.34375 -1.046875q-0.53125 -0.65625 -0.796875 -1.53125q-0.25 -0.875 -0.25 -1.84375q0 -0.875 0.28125 -1.71875q0.28125 -0.84375 0.8125 -1.515625q0.515625 -0.640625 1.28125 -1.03125q0.78125 -0.40625 1.734375 -0.40625q0.984375 0 1.6875 0.3125q0.703125 0.296875 1.140625 0.84375q0.40625 0.515625 0.609375 1.203125q0.21875 0.6875 0.21875 1.5l0 0.609375l-5.953125 0q0 0.875 0.171875 1.59375q0.171875 0.71875 0.53125 1.265625q0.359375 0.53125 0.921875 0.84375q0.578125 0.296875 1.375 0.296875q0.8125 0 1.390625 -0.375q0.59375 -0.375 1.140625 -1.359375l0.640625 0.390625zm-2.015625 -3.421875q0 -0.515625 -0.09375 -1.09375q-0.078125 -0.59375 -0.265625 -0.984375q-0.21875 -0.421875 -0.59375 -0.671875q-0.359375 -0.265625 -0.921875 -0.265625q-0.953125 0 -1.59375 0.796875q-0.640625 0.796875 -0.6875 2.21875l4.15625 0zm8.987152 1.125q0.359375 0.328125 0.5625 0.765625q0.203125 0.421875 0.203125 1.046875q0 1.25 -0.9375 2.046875q-0.921875 0.78125 -2.40625 0.78125q-0.796875 0 -1.453125 -0.28125q-0.65625 -0.28125 -0.9375 -0.515625l-0.1875 0.59375l-0.6875 0l-0.078125 -3.125l0.625 0q0.0625 0.359375 0.296875 0.828125q0.25 0.46875 0.578125 0.859375q0.359375 0.390625 0.859375 0.671875q0.5 0.265625 1.109375 0.265625q0.875 0 1.34375 -0.390625q0.484375 -0.390625 0.484375 -1.140625q0 -0.375 -0.15625 -0.65625q-0.140625 -0.28125 -0.4375 -0.484375q-0.296875 -0.21875 -0.734375 -0.375q-0.4375 -0.171875 -0.984375 -0.34375q-0.421875 -0.125 -0.953125 -0.34375q-0.515625 -0.21875 -0.890625 -0.53125q-0.40625 -0.3125 -0.65625 -0.765625q-0.25 -0.46875 -0.25 -1.109375q0 -1.09375 0.8125 -1.859375q0.828125 -0.765625 2.203125 -0.765625q0.53125 0 1.078125 0.140625q0.546875 0.125 0.890625 0.328125l0.21875 -0.484375l0.65625 0l0.125 2.890625l-0.625 0q-0.1875 -0.96875 -0.828125 -1.5625q-0.625 -0.609375 -1.53125 -0.609375q-0.75 0 -1.1875 0.375q-0.421875 0.375 -0.421875 0.890625q0 0.421875 0.140625 0.703125q0.140625 0.265625 0.421875 0.453125q0.28125 0.171875 0.6875 0.34375q0.421875 0.15625 1.03125 0.359375q0.59375 0.1875 1.125 0.453125q0.53125 0.25 0.890625 0.546875zm12.171356 4.015625q-0.59375 0.25 -1.125 0.40625q-0.515625 0.171875 -1.28125 0.171875q-1.140625 0 -1.609375 -0.5625q-0.453125 -0.578125 -0.453125 -1.609375l0 -6.09375l-1.609375 0l0 -0.875l1.65625 0l0 -2.78125l1.65625 0l0 2.78125l2.578125 0l0 0.875l-2.5625 0l0 5.03125q0 0.5625 0.03125 0.9375q0.046875 0.375 0.203125 0.65625q0.140625 0.265625 0.4375 0.40625q0.296875 0.140625 0.78125 0.140625q0.234375 0 0.671875 -0.046875q0.4375 -0.046875 0.625 -0.109375l0 0.671875zm9.643555 -4.1875q0 0.9375 -0.296875 1.859375q-0.296875 0.921875 -0.859375 1.546875q-0.625 0.734375 -1.453125 1.09375q-0.828125 0.34375 -1.859375 0.34375q-0.859375 0 -1.640625 -0.3125q-0.765625 -0.328125 -1.359375 -0.953125q-0.59375 -0.609375 -0.953125 -1.484375q-0.34375 -0.875 -0.34375 -1.96875q0 -2.109375 1.21875 -3.4375q1.234375 -1.34375 3.21875 -1.34375q1.875 0 3.09375 1.265625q1.234375 1.265625 1.234375 3.390625zm-1.875 0.015625q0 -0.6875 -0.140625 -1.4375q-0.140625 -0.765625 -0.40625 -1.296875q-0.296875 -0.5625 -0.78125 -0.90625q-0.46875 -0.34375 -1.140625 -0.34375q-0.703125 0 -1.203125 0.34375q-0.5 0.34375 -0.8125 0.953125q-0.28125 0.546875 -0.40625 1.265625q-0.125 0.703125 -0.125 1.375q0 0.875 0.140625 1.625q0.15625 0.734375 0.453125 1.3125q0.3125 0.59375 0.78125 0.921875q0.46875 0.328125 1.171875 0.328125q1.125 0 1.796875 -1.09375q0.671875 -1.109375 0.671875 -3.046875zm15.885101 -3.359375q0.546875 0.640625 0.84375 1.484375q0.296875 0.84375 0.296875 1.921875q0 1.078125 -0.359375 1.953125q-0.359375 0.875 -0.9375 1.5q-0.609375 0.625 -1.359375 0.96875q-0.75 0.328125 -1.59375 0.328125q-0.796875 0 -1.328125 -0.1875q-0.515625 -0.171875 -0.84375 -0.421875l-0.078125 0l0 2.703125q0 0.328125 0.125 0.546875q0.140625 0.21875 0.40625 0.3125q0.21875 0.078125 0.625 0.15625q0.40625 0.078125 0.65625 0.09375l0 0.609375l-5.015625 0l0 -0.609375q0.28125 -0.015625 0.546875 -0.046875q0.265625 -0.03125 0.484375 -0.09375q0.265625 -0.09375 0.375 -0.328125q0.109375 -0.21875 0.109375 -0.53125l0 -9.546875q0 -0.28125 -0.140625 -0.53125q-0.125 -0.25 -0.34375 -0.40625q-0.171875 -0.109375 -0.46875 -0.171875q-0.28125 -0.0625 -0.5625 -0.078125l0 -0.59375l3.0625 -0.203125l0.125 0.109375l0 1.015625l0.078125 0.015625q0.46875 -0.546875 1.171875 -0.90625q0.703125 -0.375 1.390625 -0.375q0.84375 0 1.53125 0.359375q0.703125 0.359375 1.203125 0.953125zm-1.484375 6.46875q0.375 -0.5625 0.546875 -1.3125q0.171875 -0.75 0.171875 -1.671875q0 -0.671875 -0.15625 -1.375q-0.140625 -0.703125 -0.453125 -1.21875q-0.3125 -0.53125 -0.8125 -0.859375q-0.5 -0.328125 -1.203125 -0.328125q-0.671875 0 -1.140625 0.296875q-0.46875 0.296875 -0.828125 0.703125l0 5.3125q0.09375 0.25 0.28125 0.515625q0.1875 0.265625 0.40625 0.453125q0.28125 0.234375 0.609375 0.375q0.328125 0.140625 0.8125 0.140625q0.5 0 0.96875 -0.265625q0.484375 -0.28125 0.796875 -0.765625zm11.923737 -0.65625q-0.5625 1.078125 -1.515625 1.71875q-0.953125 0.625 -2.171875 0.625q-1.09375 0 -1.90625 -0.375q-0.8125 -0.390625 -1.34375 -1.046875q-0.53125 -0.65625 -0.796875 -1.53125q-0.25 -0.875 -0.25 -1.84375q0 -0.875 0.28125 -1.71875q0.28125 -0.84375 0.8125 -1.515625q0.515625 -0.640625 1.28125 -1.03125q0.78125 -0.40625 1.734375 -0.40625q0.984375 0 1.6875 0.3125q0.703125 0.296875 1.140625 0.84375q0.40625 0.515625 0.609375 1.203125q0.21875 0.6875 0.21875 1.5l0 0.609375l-5.953125 0q0 0.875 0.171875 1.59375q0.171875 0.71875 0.53125 1.265625q0.359375 0.53125 0.921875 0.84375q0.578125 0.296875 1.375 0.296875q0.8125 0 1.390625 -0.375q0.59375 -0.375 1.140625 -1.359375l0.640625 0.390625zm-2.015625 -3.421875q0 -0.515625 -0.09375 -1.09375q-0.078125 -0.59375 -0.265625 -0.984375q-0.21875 -0.421875 -0.59375 -0.671875q-0.359375 -0.265625 -0.921875 -0.265625q-0.953125 0 -1.59375 0.796875q-0.640625 0.796875 -0.6875 2.21875l4.15625 0zm9.924683 -2.296875q0 0.46875 -0.23440552 0.828125q-0.21875 0.359375 -0.6875 0.359375q-0.515625 0 -0.78125 -0.265625q-0.265625 -0.265625 -0.265625 -0.578125q0 -0.203125 0.03125 -0.359375q0.03125 -0.171875 0.046875 -0.34375q-0.421875 0 -1.0 0.359375q-0.5625 0.34375 -0.96875 0.984375l0 5.21875q0 0.328125 0.125 0.53125q0.125 0.1875 0.390625 0.296875q0.21875 0.09375 0.578125 0.140625q0.359375 0.03125 0.625 0.0625l0 0.59375l-4.734375 0l0 -0.59375q0.203125 -0.03125 0.421875 -0.046875q0.234375 -0.015625 0.390625 -0.0625q0.265625 -0.09375 0.390625 -0.296875q0.125 -0.203125 0.125 -0.53125l0 -5.546875q0 -0.28125 -0.140625 -0.546875q-0.125 -0.28125 -0.375 -0.453125q-0.171875 -0.109375 -0.40625 -0.15625q-0.234375 -0.046875 -0.5 -0.0625l0 -0.59375l2.984375 -0.203125l0.125 0.125l0 1.265625l0.046875 0q0.5625 -0.734375 1.25 -1.109375q0.703125 -0.390625 1.265625 -0.390625q0.578125 0 0.9375 0.375q0.35940552 0.375 0.35940552 1.0zm7.4553223 -5.1875q0 0.40625 -0.21875 0.6875q-0.21875 0.28125 -0.671875 0.28125q-0.28125 0 -0.5 -0.109375q-0.203125 -0.125 -0.390625 -0.328125q-0.171875 -0.203125 -0.328125 -0.453125q-0.15625 -0.25 -0.265625 -0.40625q-0.609375 0.03125 -0.953125 0.859375q-0.328125 0.8125 -0.328125 2.625l0 0.90625l2.3125 0l0 0.875l-2.3125 0l0 6.453125q0 0.328125 0.125 0.53125q0.125 0.1875 0.390625 0.296875q0.21875 0.078125 0.578125 0.125q0.359375 0.046875 0.625 0.078125l0 0.59375l-4.734375 0l0 -0.59375q0.21875 -0.03125 0.4375 -0.046875q0.21875 -0.015625 0.390625 -0.0625q0.25 -0.09375 0.375 -0.296875q0.125 -0.203125 0.125 -0.53125l0 -6.546875l-1.78125 0l0 -0.875l1.78125 0l0 -0.5625q0 -2.046875 1.0625 -3.3125q1.0625 -1.28125 2.65625 -1.28125q0.796875 0 1.203125 0.328125q0.421875 0.3125 0.421875 0.765625zm8.129456 8.4375q0 0.9375 -0.296875 1.859375q-0.296875 0.921875 -0.859375 1.546875q-0.625 0.734375 -1.453125 1.09375q-0.828125 0.34375 -1.859375 0.34375q-0.859375 0 -1.640625 -0.3125q-0.765625 -0.328125 -1.359375 -0.953125q-0.59375 -0.609375 -0.953125 -1.484375q-0.34375 -0.875 -0.34375 -1.96875q0 -2.109375 1.21875 -3.4375q1.234375 -1.34375 3.21875 -1.34375q1.875 0 3.09375 1.265625q1.234375 1.265625 1.234375 3.390625zm-1.875 0.015625q0 -0.6875 -0.140625 -1.4375q-0.140625 -0.765625 -0.40625 -1.296875q-0.296875 -0.5625 -0.78125 -0.90625q-0.46875 -0.34375 -1.140625 -0.34375q-0.703125 0 -1.203125 0.34375q-0.5 0.34375 -0.8125 0.953125q-0.28125 0.546875 -0.40625 1.265625q-0.125 0.703125 -0.125 1.375q0 0.875 0.140625 1.625q0.15625 0.734375 0.453125 1.3125q0.3125 0.59375 0.78125 0.921875q0.46875 0.328125 1.171875 0.328125q1.125 0 1.796875 -1.09375q0.671875 -1.109375 0.671875 -3.046875zm10.056885 -3.265625q0 0.46875 -0.234375 0.828125q-0.21875 0.359375 -0.6875 0.359375q-0.515625 0 -0.78125 -0.265625q-0.265625 -0.265625 -0.265625 -0.578125q0 -0.203125 0.03125 -0.359375q0.03125 -0.171875 0.046875 -0.34375q-0.421875 0 -1.0 0.359375q-0.5625 0.34375 -0.96875 0.984375l0 5.21875q0 0.328125 0.125 0.53125q0.125 0.1875 0.390625 0.296875q0.21875 0.09375 0.578125 0.140625q0.359375 0.03125 0.625 0.0625l0 0.59375l-4.734375 0l0 -0.59375q0.203125 -0.03125 0.421875 -0.046875q0.234375 -0.015625 0.390625 -0.0625q0.265625 -0.09375 0.390625 -0.296875q0.125 -0.203125 0.125 -0.53125l0 -5.546875q0 -0.28125 -0.140625 -0.546875q-0.125 -0.28125 -0.375 -0.453125q-0.171875 -0.109375 -0.40625 -0.15625q-0.234375 -0.046875 -0.5 -0.0625l0 -0.59375l2.984375 -0.203125l0.125 0.125l0 1.265625l0.046875 0q0.5625 -0.734375 1.25 -1.109375q0.703125 -0.390625 1.265625 -0.390625q0.578125 0 0.9375 0.375q0.359375 0.375 0.359375 1.0zm16.158508 7.828125l-4.390625 0l0 -0.59375q0.21875 -0.03125 0.421875 -0.046875q0.21875 -0.015625 0.390625 -0.0625q0.25 -0.09375 0.375 -0.296875q0.125 -0.203125 0.125 -0.53125l0 -4.640625q0 -0.9375 -0.4375 -1.453125q-0.4375 -0.515625 -1.078125 -0.515625q-0.453125 0 -0.84375 0.140625q-0.390625 0.125 -0.71875 0.375q-0.265625 0.203125 -0.4375 0.4375q-0.171875 0.234375 -0.265625 0.375l0 5.1875q0 0.328125 0.109375 0.53125q0.109375 0.203125 0.375 0.3125q0.203125 0.078125 0.375 0.125q0.171875 0.03125 0.4375 0.0625l0 0.59375l-4.296875 0l0 -0.59375q0.21875 -0.03125 0.40625 -0.046875q0.203125 -0.015625 0.359375 -0.0625q0.265625 -0.09375 0.375 -0.296875q0.125 -0.203125 0.125 -0.53125l0 -4.640625q0 -0.9375 -0.4375 -1.453125q-0.421875 -0.515625 -1.0625 -0.515625q-0.453125 0 -0.84375 0.140625q-0.390625 0.140625 -0.71875 0.390625q-0.265625 0.1875 -0.453125 0.4375q-0.171875 0.25 -0.265625 0.390625l0 5.140625q0 0.3125 0.125 0.53125q0.125 0.203125 0.390625 0.3125q0.1875 0.09375 0.375 0.140625q0.203125 0.03125 0.453125 0.0625l0 0.59375l-4.359375 0l0 -0.59375q0.203125 -0.03125 0.421875 -0.046875q0.234375 -0.015625 0.390625 -0.0625q0.265625 -0.09375 0.390625 -0.296875q0.125 -0.203125 0.125 -0.53125l0 -5.578125q0 -0.296875 -0.140625 -0.53125q-0.125 -0.234375 -0.375 -0.390625q-0.171875 -0.109375 -0.421875 -0.171875q-0.25 -0.078125 -0.53125 -0.09375l0 -0.59375l3.015625 -0.203125l0.125 0.125l0 1.296875l0.0625 0q0.21875 -0.234375 0.546875 -0.546875q0.328125 -0.3125 0.609375 -0.5q0.328125 -0.21875 0.796875 -0.359375q0.484375 -0.15625 1.046875 -0.15625q0.875 0 1.5 0.46875q0.625 0.46875 0.90625 1.140625q0.328125 -0.3125 0.578125 -0.546875q0.25 -0.25 0.65625 -0.53125q0.34375 -0.234375 0.8125 -0.375q0.46875 -0.15625 1.046875 -0.15625q1.140625 0 1.796875 0.75q0.671875 0.75 0.671875 2.296875l0 4.5625q0 0.328125 0.109375 0.53125q0.109375 0.203125 0.375 0.3125q0.203125 0.078125 0.40625 0.125q0.203125 0.03125 0.46875 0.0625l0 0.59375zm11.089844 -0.390625q-0.59375 0.25 -1.125 0.40625q-0.515625 0.171875 -1.28125 0.171875q-1.140625 0 -1.609375 -0.5625q-0.453125 -0.578125 -0.453125 -1.609375l0 -6.09375l-1.609375 0l0 -0.875l1.65625 0l0 -2.78125l1.65625 0l0 2.78125l2.578125 0l0 0.875l-2.5625 0l0 5.03125q0 0.5625 0.03125 0.9375q0.046875 0.375 0.203125 0.65625q0.140625 0.265625 0.4375 0.40625q0.296875 0.140625 0.78125 0.140625q0.234375 0 0.671875 -0.046875q0.4375 -0.046875 0.625 -0.109375l0 0.671875zm10.643555 0.390625l-4.40625 0l0 -0.59375q0.21875 -0.03125 0.46875 -0.046875q0.25 -0.015625 0.421875 -0.0625q0.25 -0.09375 0.375 -0.296875q0.125 -0.203125 0.125 -0.53125l0 -4.625q0 -0.953125 -0.453125 -1.46875q-0.453125 -0.515625 -1.09375 -0.515625q-0.484375 0 -0.890625 0.15625q-0.390625 0.140625 -0.71875 0.359375q-0.3125 0.234375 -0.484375 0.46875q-0.15625 0.21875 -0.25 0.375l0 5.15625q0 0.3125 0.125 0.515625q0.125 0.203125 0.390625 0.3125q0.1875 0.09375 0.40625 0.140625q0.21875 0.03125 0.46875 0.0625l0 0.59375l-4.40625 0l0 -0.59375q0.203125 -0.03125 0.421875 -0.046875q0.234375 -0.03125 0.390625 -0.0625q0.265625 -0.09375 0.390625 -0.296875q0.125 -0.203125 0.125 -0.53125l0 -10.453125q0 -0.3125 -0.140625 -0.625q-0.140625 -0.3125 -0.375 -0.46875q-0.15625 -0.109375 -0.578125 -0.15625q-0.40625 -0.0625 -0.671875 -0.078125l0 -0.578125l3.328125 -0.203125l0.125 0.125l0 6.265625l0.046875 0q0.296875 -0.296875 0.546875 -0.53125q0.25 -0.234375 0.640625 -0.484375q0.34375 -0.21875 0.8125 -0.359375q0.46875 -0.15625 1.0625 -0.15625q1.203125 0 1.84375 0.765625q0.640625 0.765625 0.640625 2.1875l0 4.671875q0 0.328125 0.109375 0.53125q0.125 0.1875 0.390625 0.296875q0.203125 0.078125 0.375 0.125q0.171875 0.03125 0.4375 0.0625l0 0.59375zm9.0928955 -2.109375q-0.5625 1.078125 -1.515625 1.71875q-0.953125 0.625 -2.171875 0.625q-1.09375 0 -1.90625 -0.375q-0.8125 -0.390625 -1.34375 -1.046875q-0.53125 -0.65625 -0.796875 -1.53125q-0.25 -0.875 -0.25 -1.84375q0 -0.875 0.28125 -1.71875q0.28125 -0.84375 0.8125 -1.515625q0.515625 -0.640625 1.28125 -1.03125q0.78125 -0.40625 1.734375 -0.40625q0.984375 0 1.6875 0.3125q0.703125 0.296875 1.140625 0.84375q0.40625 0.515625 0.609375 1.203125q0.21875 0.6875 0.21875 1.5l0 0.609375l-5.953125 0q0 0.875 0.171875 1.59375q0.171875 0.71875 0.53125 1.265625q0.359375 0.53125 0.921875 0.84375q0.578125 0.296875 1.375 0.296875q0.8125 0 1.390625 -0.375q0.59375 -0.375 1.140625 -1.359375l0.640625 0.390625zm-2.015625 -3.421875q0 -0.515625 -0.09375 -1.09375q-0.078125 -0.59375 -0.265625 -0.984375q-0.21875 -0.421875 -0.59375 -0.671875q-0.359375 -0.265625 -0.921875 -0.265625q-0.953125 0 -1.59375 0.796875q-0.640625 0.796875 -0.6875 2.21875l4.15625 0zm16.065369 5.375q-0.4375 0.140625 -0.765625 0.234375q-0.3125 0.109375 -0.734375 0.109375q-0.703125 0 -1.125 -0.328125q-0.421875 -0.34375 -0.546875 -0.984375l-0.046875 0q-0.59375 0.65625 -1.28125 1.015625q-0.671875 0.34375 -1.625 0.34375q-1.015625 0 -1.671875 -0.625q-0.640625 -0.625 -0.640625 -1.625q0 -0.515625 0.140625 -0.921875q0.140625 -0.421875 0.4375 -0.75q0.234375 -0.265625 0.59375 -0.46875q0.375 -0.21875 0.703125 -0.359375q0.421875 -0.15625 1.671875 -0.5625q1.25 -0.421875 1.6875 -0.65625l0 -0.90625q0 -0.125 -0.0625 -0.453125q-0.046875 -0.34375 -0.203125 -0.640625q-0.1875 -0.34375 -0.515625 -0.59375q-0.328125 -0.25 -0.9375 -0.25q-0.421875 0 -0.78125 0.140625q-0.359375 0.140625 -0.515625 0.296875q0 0.1875 0.09375 0.546875q0.09375 0.359375 0.09375 0.65625q0 0.3125 -0.296875 0.578125q-0.28125 0.265625 -0.796875 0.265625q-0.453125 0 -0.671875 -0.3125q-0.203125 -0.328125 -0.203125 -0.734375q0 -0.421875 0.296875 -0.796875q0.296875 -0.390625 0.765625 -0.6875q0.40625 -0.25 0.984375 -0.421875q0.59375 -0.1875 1.140625 -0.1875q0.765625 0 1.328125 0.109375q0.578125 0.09375 1.046875 0.4375q0.46875 0.34375 0.703125 0.921875q0.234375 0.578125 0.234375 1.484375q0 1.3125 -0.03125 2.328125q-0.015625 1.0 -0.015625 2.1875q0 0.359375 0.125 0.5625q0.125 0.203125 0.375 0.359375q0.140625 0.078125 0.4375 0.09375q0.296875 0 0.609375 0l0 0.59375zm-3.1875 -4.8125q-0.78125 0.21875 -1.359375 0.4375q-0.578125 0.21875 -1.078125 0.546875q-0.453125 0.3125 -0.71875 0.734375q-0.265625 0.421875 -0.265625 1.015625q0 0.75 0.390625 1.109375q0.40625 0.34375 1.015625 0.34375q0.640625 0 1.125 -0.3125q0.5 -0.3125 0.84375 -0.734375l0.046875 -3.140625zm8.229126 5.203125q-1.953125 0 -3.0625 -1.28125q-1.09375 -1.296875 -1.09375 -3.484375q0 -0.9375 0.296875 -1.765625q0.296875 -0.828125 0.859375 -1.5q0.53125 -0.640625 1.34375 -1.03125q0.8125 -0.40625 1.765625 -0.40625q1.328125 0 2.15625 0.640625q0.828125 0.625 0.828125 1.71875q0 0.453125 -0.21875 0.8125q-0.21875 0.34375 -0.71875 0.34375q-0.53125 0 -0.828125 -0.265625q-0.296875 -0.28125 -0.296875 -0.625q0 -0.40625 0.109375 -0.828125q0.109375 -0.4375 0.125 -0.640625q-0.171875 -0.28125 -0.5 -0.375q-0.3125 -0.09375 -0.6875 -0.09375q-0.4375 0 -0.84375 0.1875q-0.390625 0.171875 -0.765625 0.6875q-0.328125 0.453125 -0.546875 1.234375q-0.203125 0.765625 -0.203125 1.84375q0 1.6875 0.75 2.765625q0.75 1.0625 1.96875 1.0625q0.890625 0 1.484375 -0.421875q0.59375 -0.4375 1.109375 -1.296875l0.578125 0.390625q-0.59375 1.078125 -1.578125 1.703125q-0.984375 0.625 -2.03125 0.625zm9.862427 -0.625q-0.59375 0.25 -1.125 0.40625q-0.515625 0.171875 -1.28125 0.171875q-1.140625 0 -1.609375 -0.5625q-0.453125 -0.578125 -0.453125 -1.609375l0 -6.09375l-1.609375 0l0 -0.875l1.65625 0l0 -2.78125l1.65625 0l0 2.78125l2.578125 0l0 0.875l-2.5625 0l0 5.03125q0 0.5625 0.03125 0.9375q0.046875 0.375 0.203125 0.65625q0.140625 0.265625 0.4375 0.40625q0.296875 0.140625 0.78125 0.140625q0.234375 0 0.671875 -0.046875q0.4375 -0.046875 0.625 -0.109375l0 0.671875zm5.2529297 0.390625l-4.34375 0l0 -0.59375q0.21875 -0.03125 0.4375 -0.046875q0.21875 -0.015625 0.390625 -0.0625q0.25 -0.09375 0.375 -0.296875q0.125 -0.203125 0.125 -0.53125l0 -5.546875q0 -0.296875 -0.140625 -0.53125q-0.125 -0.25 -0.359375 -0.40625q-0.171875 -0.109375 -0.5 -0.1875q-0.328125 -0.078125 -0.609375 -0.09375l0 -0.59375l3.171875 -0.203125l0.125 0.125l0 7.328125q0 0.3125 0.125 0.53125q0.125 0.203125 0.390625 0.3125q0.203125 0.078125 0.390625 0.125q0.1875 0.046875 0.421875 0.078125l0 0.59375zm-1.140625 -12.640625q0 0.53125 -0.34375 0.921875q-0.34375 0.375 -0.84375 0.375q-0.46875 0 -0.8125 -0.359375q-0.328125 -0.375 -0.328125 -0.84375q0 -0.5 0.328125 -0.875q0.34375 -0.375 0.8125 -0.375q0.515625 0 0.84375 0.359375q0.34375 0.34375 0.34375 0.796875zm10.996948 8.0625q0 0.9375 -0.296875 1.859375q-0.296875 0.921875 -0.859375 1.546875q-0.625 0.734375 -1.453125 1.09375q-0.828125 0.34375 -1.859375 0.34375q-0.859375 0 -1.640625 -0.3125q-0.765625 -0.328125 -1.359375 -0.953125q-0.59375 -0.609375 -0.953125 -1.484375q-0.34375 -0.875 -0.34375 -1.96875q0 -2.109375 1.21875 -3.4375q1.234375 -1.34375 3.21875 -1.34375q1.875 0 3.09375 1.265625q1.234375 1.265625 1.234375 3.390625zm-1.875 0.015625q0 -0.6875 -0.140625 -1.4375q-0.140625 -0.765625 -0.40625 -1.296875q-0.296875 -0.5625 -0.78125 -0.90625q-0.46875 -0.34375 -1.140625 -0.34375q-0.703125 0 -1.203125 0.34375q-0.5 0.34375 -0.8125 0.953125q-0.28125 0.546875 -0.40625 1.265625q-0.125 0.703125 -0.125 1.375q0 0.875 0.140625 1.625q0.15625 0.734375 0.453125 1.3125q0.3125 0.59375 0.78125 0.921875q0.46875 0.328125 1.171875 0.328125q1.125 0 1.796875 -1.09375q0.671875 -1.109375 0.671875 -3.046875zm13.10376 4.5625l-4.40625 0l0 -0.59375q0.21875 -0.03125 0.46875 -0.046875q0.25 -0.015625 0.40625 -0.0625q0.265625 -0.09375 0.375 -0.296875q0.125 -0.203125 0.125 -0.53125l0 -4.625q0 -0.953125 -0.453125 -1.46875q-0.4375 -0.515625 -1.09375 -0.515625q-0.484375 0 -0.890625 0.15625q-0.390625 0.140625 -0.703125 0.359375q-0.296875 0.203125 -0.484375 0.453125q-0.171875 0.234375 -0.25 0.390625l0 5.15625q0 0.3125 0.125 0.515625q0.125 0.203125 0.390625 0.3125q0.1875 0.09375 0.40625 0.140625q0.21875 0.03125 0.46875 0.0625l0 0.59375l-4.40625 0l0 -0.59375q0.203125 -0.03125 0.421875 -0.046875q0.234375 -0.015625 0.390625 -0.0625q0.265625 -0.09375 0.390625 -0.296875q0.125 -0.203125 0.125 -0.53125l0 -5.546875q0 -0.3125 -0.140625 -0.5625q-0.125 -0.265625 -0.375 -0.4375q-0.171875 -0.109375 -0.40625 -0.15625q-0.234375 -0.046875 -0.5 -0.0625l0 -0.59375l2.984375 -0.203125l0.125 0.125l0 1.265625l0.046875 0q0.21875 -0.21875 0.546875 -0.515625q0.328125 -0.3125 0.609375 -0.5q0.34375 -0.21875 0.8125 -0.359375q0.46875 -0.15625 1.046875 -0.15625q1.296875 0 1.921875 0.8125q0.625 0.8125 0.625 2.140625l0 4.671875q0 0.328125 0.09375 0.53125q0.109375 0.1875 0.375 0.296875q0.21875 0.09375 0.375 0.125q0.171875 0.03125 0.453125 0.0625l0 0.59375z" fill-rule="nonzero"/><path fill="#000000" d="m398.16177 484.22525q0.4375 0.296875 0.734375 0.796875q0.296875 0.484375 0.296875 1.171875q0 0.71875 -0.3125 1.234375q-0.3125 0.515625 -0.796875 0.859375q-0.484375 0.328125 -1.09375 0.5q-0.59375 0.171875 -1.25 0.171875l-4.796875 0l0 -0.515625q0.171875 0 0.5 -0.046875q0.328125 -0.046875 0.46875 -0.125q0.21875 -0.09375 0.3125 -0.25q0.09375 -0.171875 0.09375 -0.4375l0 -7.3125q0 -0.234375 -0.09375 -0.421875q-0.078125 -0.1875 -0.3125 -0.296875q-0.21875 -0.109375 -0.484375 -0.15625q-0.265625 -0.0625 -0.4375 -0.078125l0 -0.515625l4.6875 0q0.546875 0 1.03125 0.109375q0.5 0.109375 0.953125 0.375q0.421875 0.25 0.6875 0.6875q0.28125 0.421875 0.28125 1.046875q0 0.53125 -0.203125 0.953125q-0.1875 0.421875 -0.53125 0.71875q-0.328125 0.28125 -0.765625 0.484375q-0.421875 0.1875 -0.90625 0.296875l0 0.0625q0.421875 0.046875 0.96875 0.21875q0.546875 0.171875 0.96875 0.46875zm-1.734375 -1.53125q0.265625 -0.296875 0.359375 -0.65625q0.109375 -0.375 0.109375 -0.875q0 -0.84375 -0.453125 -1.3125q-0.453125 -0.484375 -1.4375 -0.484375q-0.234375 0 -0.578125 0.015625q-0.34375 0.015625 -0.59375 0.015625l0 3.90625l0.921875 0q0.578125 0 1.0 -0.15625q0.421875 -0.15625 0.671875 -0.453125zm0.984375 3.25q0 -0.90625 -0.609375 -1.484375q-0.59375 -0.578125 -1.71875 -0.578125q-0.453125 0 -0.765625 0.015625q-0.3125 0 -0.484375 0.015625l0 3.578125q0 0.453125 0.359375 0.6875q0.375 0.21875 1.03125 0.21875q1.0625 0 1.625 -0.625q0.5625 -0.625 0.5625 -1.828125zm2.4105225 5.3125q0 -0.34375 0.1875 -0.578125q0.203125 -0.21875 0.5 -0.21875q0.21875 0 0.375 0.078125q0.171875 0.09375 0.3125 0.21875q0.09375 0.109375 0.21875 0.296875q0.125 0.1875 0.203125 0.3125q0.34375 -0.1875 0.8437195 -1.015625q0.5 -0.8125 0.71875 -1.421875q-0.671875 -1.703125 -1.2343445 -3.03125q-0.546875 -1.34375 -1.140625 -2.78125q-0.140625 -0.328125 -0.46875 -0.5q-0.3125 -0.1875 -0.640625 -0.234375l0 -0.484375l3.2187195 0l0 0.5q-0.203125 0.015625 -0.515625 0.09375q-0.296875 0.078125 -0.296875 0.1875q0 0.046875 0.03125 0.15625q0.03125 0.09375 0.078125 0.203125q0.265625 0.703125 0.828125 2.046875q0.5625 1.328125 0.875 2.125q0.3125 -0.765625 0.65625 -1.578125q0.359375 -0.828125 0.78125 -1.9375q0.046875 -0.140625 0.140625 -0.375q0.09375 -0.234375 0.09375 -0.40625q0 -0.1875 -0.328125 -0.34375q-0.3125 -0.171875 -0.609375 -0.203125l0 -0.46875l2.609375 0l0 0.453125q-0.203125 0.03125 -0.5625 0.25q-0.34375 0.203125 -0.515625 0.59375q-0.859375 1.96875 -1.515625 3.59375q-0.65625 1.625 -1.0 2.390625q-0.453125 1.0 -0.8125 1.5625q-0.359375 0.5625 -0.6875 0.890625q-0.32809448 0.296875 -0.6093445 0.390625q-0.265625 0.109375 -0.546875 0.109375q-0.5625 0 -0.875 -0.265625q-0.3125 -0.265625 -0.3125 -0.609375zm10.494843 -8.40625q0 0.40625 -0.296875 0.703125q-0.28125 0.28125 -0.671875 0.28125q-0.40625 0 -0.703125 -0.28125q-0.28125 -0.296875 -0.28125 -0.703125q0 -0.390625 0.28125 -0.671875q0.28125 -0.296875 0.703125 -0.296875q0.40625 0 0.6875 0.296875q0.28125 0.28125 0.28125 0.671875zm0 5.28125q0 0.40625 -0.296875 0.6875q-0.28125 0.28125 -0.671875 0.28125q-0.40625 0 -0.703125 -0.28125q-0.28125 -0.28125 -0.28125 -0.6875q0 -0.390625 0.28125 -0.671875q0.296875 -0.296875 0.703125 -0.296875q0.390625 0 0.671875 0.296875q0.296875 0.28125 0.296875 0.671875zm15.021606 0.828125l-4.234375 0l0 -0.515625q0.5625 -0.03125 0.921875 -0.140625q0.375 -0.109375 0.375 -0.265625q0 -0.0625 -0.015625 -0.15625q-0.015625 -0.09375 -0.046875 -0.15625l-0.84375 -2.28125l-3.546875 0q-0.203125 0.5 -0.328125 0.875q-0.125 0.375 -0.234375 0.6875q-0.09375 0.3125 -0.125 0.5q-0.03125 0.1875 -0.03125 0.3125q0 0.28125 0.453125 0.453125q0.453125 0.15625 1.015625 0.171875l0 0.515625l-3.828125 0l0 -0.515625q0.1875 0 0.46875 -0.0625q0.28125 -0.078125 0.453125 -0.1875q0.296875 -0.203125 0.453125 -0.40625q0.15625 -0.21875 0.296875 -0.59375q0.765625 -1.90625 1.6875 -4.28125q0.9375 -2.390625 1.65625 -4.25l0.5625 0l3.390625 8.765625q0.109375 0.265625 0.234375 0.4375q0.140625 0.171875 0.390625 0.34375q0.15625 0.09375 0.421875 0.171875q0.265625 0.0625 0.453125 0.0625l0 0.515625zm-4.09375 -4.15625l-1.546875 -3.9375l-1.5 3.9375l3.046875 0zm11.832825 4.03125l-2.296875 0.15625l-0.109375 -0.109375l0 -0.890625l-0.046875 0q-0.171875 0.1875 -0.390625 0.390625q-0.203125 0.203125 -0.484375 0.359375q-0.3125 0.203125 -0.625 0.296875q-0.296875 0.09375 -0.84375 0.09375q-0.9375 0 -1.4375 -0.609375q-0.484375 -0.609375 -0.484375 -1.78125l0 -3.375q0 -0.25 -0.09375 -0.421875q-0.09375 -0.1875 -0.28125 -0.3125q-0.125 -0.078125 -0.328125 -0.109375q-0.1875 -0.046875 -0.40625 -0.0625l0 -0.46875l2.359375 -0.171875l0.109375 0.09375l0 4.90625q0 0.765625 0.34375 1.15625q0.34375 0.390625 0.8125 0.390625q0.390625 0 0.703125 -0.125q0.3125 -0.125 0.515625 -0.296875q0.1875 -0.140625 0.328125 -0.3125q0.15625 -0.171875 0.234375 -0.3125l0 -4.0q0 -0.234375 -0.109375 -0.40625q-0.09375 -0.1875 -0.265625 -0.328125q-0.125 -0.078125 -0.390625 -0.09375q-0.25 -0.015625 -0.5625 -0.03125l0 -0.46875l2.5625 -0.171875l0.109375 0.09375l0 5.609375q0 0.25 0.09375 0.421875q0.109375 0.15625 0.28125 0.28125q0.125 0.078125 0.296875 0.109375q0.1875 0.03125 0.40625 0.03125l0 0.46875zm5.523987 -3.328125q0.296875 0.25 0.453125 0.59375q0.15625 0.328125 0.15625 0.8125q0 0.984375 -0.734375 1.609375q-0.734375 0.625 -1.890625 0.625q-0.625 0 -1.140625 -0.21875q-0.515625 -0.21875 -0.734375 -0.40625l-0.15625 0.453125l-0.53125 0l-0.078125 -2.453125l0.5 0q0.0625 0.28125 0.25 0.65625q0.1875 0.375 0.4375 0.671875q0.28125 0.3125 0.671875 0.53125q0.390625 0.21875 0.875 0.21875q0.6875 0 1.0625 -0.3125q0.375 -0.3125 0.375 -0.890625q0 -0.3125 -0.125 -0.515625q-0.109375 -0.21875 -0.34375 -0.390625q-0.234375 -0.171875 -0.578125 -0.296875q-0.34375 -0.125 -0.765625 -0.265625q-0.328125 -0.09375 -0.75 -0.265625q-0.40625 -0.1875 -0.703125 -0.421875q-0.3125 -0.25 -0.515625 -0.609375q-0.203125 -0.359375 -0.203125 -0.859375q0 -0.859375 0.640625 -1.453125q0.65625 -0.609375 1.734375 -0.609375q0.421875 0 0.84375 0.109375q0.4375 0.09375 0.703125 0.25l0.171875 -0.375l0.515625 0l0.109375 2.265625l-0.5 0q-0.15625 -0.75 -0.65625 -1.21875q-0.484375 -0.484375 -1.203125 -0.484375q-0.59375 0 -0.9375 0.296875q-0.328125 0.28125 -0.328125 0.703125q0 0.328125 0.109375 0.546875q0.125 0.203125 0.34375 0.359375q0.21875 0.140625 0.53125 0.265625q0.328125 0.125 0.8125 0.28125q0.46875 0.15625 0.890625 0.359375q0.421875 0.1875 0.6875 0.4375zm6.036499 3.140625q-0.46875 0.203125 -0.890625 0.328125q-0.40625 0.140625 -1.0 0.140625q-0.890625 0 -1.265625 -0.453125q-0.359375 -0.453125 -0.359375 -1.265625l0 -4.78125l-1.265625 0l0 -0.6875l1.296875 0l0 -2.1875l1.3125 0l0 2.1875l2.015625 0l0 0.6875l-2.0 0l0 3.953125q0 0.4375 0.03125 0.734375q0.03125 0.296875 0.140625 0.515625q0.125 0.203125 0.34375 0.3125q0.234375 0.109375 0.625 0.109375q0.171875 0 0.515625 -0.03125q0.359375 -0.03125 0.5 -0.078125l0 0.515625zm4.1220703 0.3125l-3.40625 0l0 -0.46875q0.15625 -0.015625 0.328125 -0.03125q0.1875 -0.015625 0.3125 -0.0625q0.203125 -0.0625 0.296875 -0.21875q0.09375 -0.15625 0.09375 -0.421875l0 -4.359375q0 -0.234375 -0.109375 -0.421875q-0.09375 -0.1875 -0.28125 -0.3125q-0.140625 -0.09375 -0.40625 -0.140625q-0.25 -0.0625 -0.453125 -0.078125l0 -0.46875l2.484375 -0.15625l0.09375 0.09375l0 5.765625q0 0.25 0.09375 0.421875q0.109375 0.15625 0.3125 0.234375q0.15625 0.0625 0.296875 0.109375q0.15625 0.03125 0.34375 0.046875l0 0.46875zm-0.890625 -9.921875q0 0.40625 -0.28125 0.71875q-0.265625 0.296875 -0.65625 0.296875q-0.359375 0 -0.640625 -0.28125q-0.265625 -0.296875 -0.265625 -0.671875q0 -0.390625 0.265625 -0.6875q0.28125 -0.296875 0.640625 -0.296875q0.40625 0 0.671875 0.28125q0.265625 0.265625 0.265625 0.640625zm9.559448 9.921875l-3.453125 0l0 -0.46875q0.15625 -0.015625 0.34375 -0.03125q0.203125 -0.015625 0.328125 -0.0625q0.203125 -0.0625 0.296875 -0.21875q0.109375 -0.15625 0.109375 -0.421875l0 -3.625q0 -0.75 -0.359375 -1.15625q-0.359375 -0.40625 -0.859375 -0.40625q-0.375 0 -0.703125 0.125q-0.3125 0.109375 -0.546875 0.28125q-0.234375 0.15625 -0.375 0.34375q-0.140625 0.1875 -0.203125 0.3125l0 4.046875q0 0.25 0.09375 0.40625q0.09375 0.15625 0.296875 0.25q0.15625 0.0625 0.328125 0.109375q0.171875 0.03125 0.359375 0.046875l0 0.46875l-3.453125 0l0 -0.46875q0.171875 -0.015625 0.34375 -0.03125q0.171875 -0.015625 0.296875 -0.0625q0.203125 -0.0625 0.296875 -0.21875q0.09375 -0.15625 0.09375 -0.421875l0 -4.359375q0 -0.234375 -0.109375 -0.4375q-0.09375 -0.21875 -0.28125 -0.34375q-0.140625 -0.078125 -0.328125 -0.109375q-0.171875 -0.046875 -0.390625 -0.0625l0 -0.46875l2.34375 -0.15625l0.109375 0.09375l0 1.0l0.03125 0q0.171875 -0.171875 0.421875 -0.40625q0.265625 -0.25 0.484375 -0.390625q0.265625 -0.171875 0.625 -0.28125q0.375 -0.125 0.828125 -0.125q1.03125 0 1.515625 0.640625q0.484375 0.625 0.484375 1.671875l0 3.671875q0 0.25 0.078125 0.40625q0.09375 0.15625 0.3125 0.25q0.171875 0.0625 0.296875 0.09375q0.125 0.03125 0.34375 0.046875l0 0.46875zm15.006958 -9.640625q-0.203125 0 -0.625 0.109375q-0.40625 0.109375 -0.59375 0.21875q-0.25 0.1875 -0.34375 0.703125q-0.09375 0.5 -0.09375 1.28125l0 7.421875l-0.609375 0l-6.15625 -8.296875l0 5.234375q0 0.875 0.109375 1.359375q0.109375 0.46875 0.34375 0.671875q0.15625 0.15625 0.671875 0.296875q0.515625 0.125 0.6875 0.125l0 0.515625l-4.171875 0l0 -0.515625q0.1875 0 0.640625 -0.125q0.46875 -0.125 0.578125 -0.234375q0.25 -0.203125 0.34375 -0.609375q0.09375 -0.40625 0.09375 -1.40625l0 -5.0q0 -0.328125 -0.109375 -0.65625q-0.109375 -0.328125 -0.3125 -0.515625q-0.25 -0.234375 -0.703125 -0.390625q-0.4375 -0.171875 -0.703125 -0.1875l0 -0.515625l2.890625 0l5.71875 7.75l0 -4.84375q0 -0.875 -0.125 -1.34375q-0.109375 -0.484375 -0.3125 -0.640625q-0.203125 -0.140625 -0.65625 -0.265625q-0.453125 -0.125 -0.703125 -0.140625l0 -0.515625l4.140625 0l0 0.515625zm7.3207703 9.515625q-0.34375 0.125 -0.59375 0.1875q-0.25 0.078125 -0.578125 0.078125q-0.5625 0 -0.890625 -0.25q-0.328125 -0.265625 -0.421875 -0.765625l-0.046875 0q-0.46875 0.515625 -1.0 0.78125q-0.53125 0.265625 -1.28125 0.265625q-0.796875 0 -1.3125 -0.484375q-0.5 -0.484375 -0.5 -1.265625q0 -0.40625 0.109375 -0.734375q0.109375 -0.328125 0.34375 -0.578125q0.171875 -0.21875 0.46875 -0.375q0.296875 -0.171875 0.546875 -0.28125q0.328125 -0.125 1.3125 -0.453125q0.984375 -0.328125 1.328125 -0.515625l0 -0.703125q0 -0.09375 -0.046875 -0.359375q-0.03125 -0.265625 -0.15625 -0.5q-0.140625 -0.265625 -0.40625 -0.453125q-0.265625 -0.203125 -0.75 -0.203125q-0.328125 0 -0.609375 0.109375q-0.28125 0.109375 -0.390625 0.234375q0 0.140625 0.0625 0.421875q0.078125 0.28125 0.078125 0.515625q0 0.25 -0.234375 0.46875q-0.21875 0.203125 -0.625 0.203125q-0.359375 0 -0.53125 -0.25q-0.15625 -0.265625 -0.15625 -0.578125q0 -0.328125 0.21875 -0.625q0.234375 -0.3125 0.609375 -0.546875q0.328125 -0.203125 0.78125 -0.328125q0.453125 -0.140625 0.890625 -0.140625q0.609375 0 1.046875 0.078125q0.453125 0.078125 0.8125 0.359375q0.375 0.25 0.5625 0.71875q0.1875 0.453125 0.1875 1.15625q0 1.03125 -0.03125 1.828125q-0.015625 0.78125 -0.015625 1.71875q0 0.28125 0.09375 0.453125q0.109375 0.15625 0.3125 0.265625q0.09375 0.078125 0.328125 0.078125q0.234375 0 0.484375 0l0 0.46875zm-2.5 -3.78125q-0.609375 0.171875 -1.078125 0.34375q-0.453125 0.171875 -0.84375 0.4375q-0.359375 0.234375 -0.5625 0.578125q-0.203125 0.328125 -0.203125 0.78125q0 0.59375 0.3125 0.875q0.3125 0.28125 0.78125 0.28125q0.515625 0 0.890625 -0.25q0.390625 -0.25 0.65625 -0.578125l0.046875 -2.46875zm15.291626 3.90625l-3.453125 0l0 -0.46875q0.171875 -0.015625 0.328125 -0.03125q0.171875 -0.015625 0.3125 -0.0625q0.1875 -0.0625 0.28125 -0.21875q0.109375 -0.15625 0.109375 -0.421875l0 -3.640625q0 -0.75 -0.34375 -1.140625q-0.34375 -0.40625 -0.84375 -0.40625q-0.359375 0 -0.671875 0.109375q-0.296875 0.09375 -0.5625 0.296875q-0.203125 0.15625 -0.34375 0.34375q-0.140625 0.171875 -0.203125 0.296875l0 4.0625q0 0.265625 0.078125 0.421875q0.09375 0.15625 0.296875 0.25q0.15625 0.0625 0.28125 0.09375q0.140625 0.03125 0.359375 0.046875l0 0.46875l-3.375 0l0 -0.46875q0.171875 -0.015625 0.328125 -0.03125q0.15625 -0.015625 0.28125 -0.0625q0.203125 -0.0625 0.296875 -0.21875q0.09375 -0.15625 0.09375 -0.421875l0 -3.640625q0 -0.75 -0.34375 -1.140625q-0.328125 -0.40625 -0.84375 -0.40625q-0.34375 0 -0.65625 0.109375q-0.3125 0.109375 -0.5625 0.296875q-0.21875 0.15625 -0.359375 0.359375q-0.140625 0.1875 -0.203125 0.296875l0 4.046875q0 0.234375 0.09375 0.40625q0.09375 0.15625 0.296875 0.25q0.15625 0.0625 0.3125 0.109375q0.15625 0.03125 0.34375 0.046875l0 0.46875l-3.421875 0l0 -0.46875q0.171875 -0.015625 0.34375 -0.03125q0.171875 -0.015625 0.296875 -0.0625q0.203125 -0.0625 0.296875 -0.21875q0.09375 -0.15625 0.09375 -0.421875l0 -4.390625q0 -0.21875 -0.109375 -0.40625q-0.09375 -0.1875 -0.28125 -0.3125q-0.140625 -0.078125 -0.34375 -0.125q-0.1875 -0.0625 -0.40625 -0.078125l0 -0.46875l2.359375 -0.15625l0.109375 0.09375l0 1.015625l0.046875 0q0.171875 -0.1875 0.421875 -0.421875q0.265625 -0.25 0.484375 -0.390625q0.265625 -0.171875 0.640625 -0.28125q0.375 -0.125 0.8125 -0.125q0.6875 0 1.171875 0.375q0.5 0.359375 0.703125 0.890625q0.265625 -0.25 0.453125 -0.4375q0.203125 -0.203125 0.53125 -0.40625q0.265625 -0.1875 0.625 -0.296875q0.375 -0.125 0.828125 -0.125q0.890625 0 1.40625 0.59375q0.53125 0.578125 0.53125 1.796875l0 3.578125q0 0.265625 0.078125 0.421875q0.09375 0.15625 0.3125 0.25q0.15625 0.0625 0.3125 0.09375q0.171875 0.03125 0.375 0.046875l0 0.46875zm3.3632202 -0.25q0 0.515625 -0.234375 0.96875q-0.21875 0.46875 -0.53125 0.796875q-0.296875 0.34375 -0.640625 0.609375q-0.34375 0.265625 -0.640625 0.40625l-0.328125 -0.484375q0.34375 -0.203125 0.609375 -0.421875q0.28125 -0.21875 0.453125 -0.4375q0.21875 -0.25 0.359375 -0.546875q0.15625 -0.28125 0.203125 -0.65625l-0.359375 0q-0.484375 0 -0.75 -0.25q-0.265625 -0.25 -0.265625 -0.671875q0 -0.296875 0.234375 -0.578125q0.25 -0.28125 0.671875 -0.28125q0.609375 0 0.90625 0.40625q0.3125 0.40625 0.3125 1.140625zm9.56369 0.25l-4.578125 0l0 -0.515625q0.203125 0 0.5625 -0.03125q0.359375 -0.03125 0.515625 -0.09375q0.234375 -0.09375 0.34375 -0.25q0.109375 -0.15625 0.109375 -0.453125l0 -7.34375q0 -0.265625 -0.078125 -0.421875q-0.078125 -0.171875 -0.375 -0.28125q-0.21875 -0.09375 -0.546875 -0.15625q-0.328125 -0.078125 -0.53125 -0.09375l0 -0.515625l4.578125 0l0 0.515625q-0.21875 0 -0.53125 0.046875q-0.3125 0.046875 -0.53125 0.125q-0.28125 0.078125 -0.375 0.28125q-0.09375 0.1875 -0.09375 0.421875l0 7.34375q0 0.234375 0.109375 0.421875q0.109375 0.1875 0.359375 0.296875q0.140625 0.046875 0.484375 0.125q0.34375 0.0625 0.578125 0.0625l0 0.515625zm6.492035 -6.140625q0 0.359375 -0.1875 0.640625q-0.171875 0.28125 -0.546875 0.28125q-0.40625 0 -0.625 -0.203125q-0.203125 -0.203125 -0.203125 -0.453125q0 -0.171875 0.03125 -0.296875q0.03125 -0.125 0.046875 -0.25q-0.34375 0 -0.796875 0.28125q-0.4375 0.265625 -0.75 0.765625l0 4.09375q0 0.265625 0.09375 0.421875q0.09375 0.15625 0.296875 0.234375q0.1875 0.0625 0.46875 0.109375q0.28125 0.03125 0.484375 0.046875l0 0.46875l-3.71875 0l0 -0.46875q0.171875 -0.015625 0.34375 -0.03125q0.171875 -0.015625 0.296875 -0.0625q0.203125 -0.0625 0.296875 -0.21875q0.09375 -0.15625 0.09375 -0.421875l0 -4.359375q0 -0.21875 -0.109375 -0.4375q-0.09375 -0.21875 -0.28125 -0.34375q-0.140625 -0.078125 -0.328125 -0.109375q-0.171875 -0.046875 -0.390625 -0.0625l0 -0.46875l2.34375 -0.15625l0.109375 0.09375l0 1.0l0.03125 0q0.4375 -0.578125 0.984375 -0.875q0.546875 -0.3125 1.0 -0.3125q0.453125 0 0.734375 0.296875q0.28125 0.296875 0.28125 0.796875zm6.863556 4.484375q-0.4375 0.84375 -1.1875 1.34375q-0.734375 0.5 -1.703125 0.5q-0.859375 0 -1.5 -0.296875q-0.640625 -0.3125 -1.046875 -0.828125q-0.421875 -0.515625 -0.625 -1.1875q-0.203125 -0.6875 -0.203125 -1.453125q0 -0.6875 0.21875 -1.34375q0.21875 -0.671875 0.640625 -1.203125q0.40625 -0.515625 1.0 -0.8125q0.609375 -0.3125 1.375 -0.3125q0.765625 0 1.3125 0.25q0.5625 0.234375 0.90625 0.65625q0.328125 0.390625 0.484375 0.9375q0.15625 0.546875 0.15625 1.1875l0 0.46875l-4.671875 0q0 0.6875 0.125 1.265625q0.140625 0.5625 0.421875 0.984375q0.28125 0.421875 0.734375 0.671875q0.453125 0.234375 1.078125 0.234375q0.640625 0 1.09375 -0.296875q0.46875 -0.296875 0.890625 -1.078125l0.5 0.3125zm-1.578125 -2.6875q0 -0.40625 -0.078125 -0.859375q-0.0625 -0.46875 -0.203125 -0.765625q-0.171875 -0.34375 -0.46875 -0.546875q-0.28125 -0.203125 -0.71875 -0.203125q-0.75 0 -1.25 0.625q-0.5 0.625 -0.546875 1.75l3.265625 0zm10.194214 4.34375l-3.453125 0l0 -0.46875q0.15625 -0.015625 0.34375 -0.03125q0.203125 -0.015625 0.328125 -0.0625q0.203125 -0.0625 0.296875 -0.21875q0.109375 -0.15625 0.109375 -0.421875l0 -3.625q0 -0.75 -0.359375 -1.15625q-0.359375 -0.40625 -0.859375 -0.40625q-0.375 0 -0.703125 0.125q-0.3125 0.109375 -0.546875 0.28125q-0.234375 0.15625 -0.375 0.34375q-0.140625 0.1875 -0.203125 0.3125l0 4.046875q0 0.25 0.09375 0.40625q0.09375 0.15625 0.296875 0.25q0.15625 0.0625 0.328125 0.109375q0.171875 0.03125 0.359375 0.046875l0 0.46875l-3.453125 0l0 -0.46875q0.171875 -0.015625 0.34375 -0.03125q0.171875 -0.015625 0.296875 -0.0625q0.203125 -0.0625 0.296875 -0.21875q0.09375 -0.15625 0.09375 -0.421875l0 -4.359375q0 -0.234375 -0.109375 -0.4375q-0.09375 -0.21875 -0.28125 -0.34375q-0.140625 -0.078125 -0.328125 -0.109375q-0.171875 -0.046875 -0.390625 -0.0625l0 -0.46875l2.34375 -0.15625l0.109375 0.09375l0 1.0l0.03125 0q0.171875 -0.171875 0.421875 -0.40625q0.265625 -0.25 0.484375 -0.390625q0.265625 -0.171875 0.625 -0.28125q0.375 -0.125 0.828125 -0.125q1.03125 0 1.515625 0.640625q0.484375 0.625 0.484375 1.671875l0 3.671875q0 0.25 0.078125 0.40625q0.09375 0.15625 0.3125 0.25q0.171875 0.0625 0.296875 0.09375q0.125 0.03125 0.34375 0.046875l0 0.46875zm7.1279297 -1.65625q-0.4375 0.84375 -1.1875 1.34375q-0.734375 0.5 -1.703125 0.5q-0.859375 0 -1.5 -0.296875q-0.640625 -0.3125 -1.046875 -0.828125q-0.421875 -0.515625 -0.625 -1.1875q-0.203125 -0.6875 -0.203125 -1.453125q0 -0.6875 0.21875 -1.34375q0.21875 -0.671875 0.640625 -1.203125q0.40625 -0.515625 1.0 -0.8125q0.609375 -0.3125 1.375 -0.3125q0.765625 0 1.3125 0.25q0.5625 0.234375 0.90625 0.65625q0.328125 0.390625 0.484375 0.9375q0.15625 0.546875 0.15625 1.1875l0 0.46875l-4.671875 0q0 0.6875 0.125 1.265625q0.140625 0.5625 0.421875 0.984375q0.28125 0.421875 0.734375 0.671875q0.453125 0.234375 1.078125 0.234375q0.640625 0 1.09375 -0.296875q0.46875 -0.296875 0.890625 -1.078125l0.5 0.3125zm-1.578125 -2.6875q0 -0.40625 -0.078125 -0.859375q-0.0625 -0.46875 -0.203125 -0.765625q-0.171875 -0.34375 -0.46875 -0.546875q-0.28125 -0.203125 -0.71875 -0.203125q-0.75 0 -1.25 0.625q-0.5 0.625 -0.546875 1.75l3.265625 0zm15.979431 4.34375l-2.859375 0q-0.8125 -1.28125 -1.828125 -2.53125q-1.0 -1.25 -2.109375 -2.4375l-0.1875 0l0 3.53125q0 0.25 0.09375 0.4375q0.09375 0.171875 0.328125 0.296875q0.109375 0.046875 0.421875 0.125q0.3125 0.0625 0.515625 0.0625l0 0.515625l-4.203125 0l0 -0.515625q0.15625 0 0.46875 -0.03125q0.328125 -0.03125 0.453125 -0.09375q0.21875 -0.09375 0.3125 -0.265625q0.09375 -0.1875 0.09375 -0.453125l0 -7.328125q0 -0.234375 -0.09375 -0.40625q-0.078125 -0.1875 -0.3125 -0.296875q-0.203125 -0.09375 -0.46875 -0.15625q-0.25 -0.078125 -0.453125 -0.09375l0 -0.515625l4.203125 0l0 0.515625q-0.1875 0 -0.5 0.0625q-0.296875 0.046875 -0.4375 0.109375q-0.25 0.078125 -0.34375 0.28125q-0.078125 0.203125 -0.078125 0.4375l0 3.5l0.15625 0q0.640625 -0.546875 1.265625 -1.125q0.625 -0.59375 1.125 -1.1875q0.5625 -0.640625 0.828125 -1.03125q0.265625 -0.390625 0.265625 -0.6875q0 -0.109375 -0.140625 -0.171875q-0.125 -0.078125 -0.296875 -0.125q-0.203125 -0.046875 -0.359375 -0.046875q-0.15625 -0.015625 -0.265625 -0.015625l0 -0.515625l3.8125 0l0 0.515625q-0.015625 0 -0.09375 0.015625q-0.078125 0 -0.15625 0q-0.109375 0 -0.21875 0.03125q-0.09375 0.015625 -0.25 0.046875q-0.25 0.0625 -0.515625 0.1875q-0.265625 0.125 -0.4375 0.3125q-0.734375 0.828125 -1.546875 1.734375q-0.796875 0.890625 -1.578125 1.625q1.078125 1.234375 1.78125 2.125q0.71875 0.875 1.53125 1.890625q0.296875 0.390625 0.609375 0.625q0.3125 0.21875 0.53125 0.34375q0.1875 0.09375 0.46875 0.140625q0.28125 0.046875 0.46875 0.046875l0 0.515625zm3.5513916 0l-3.40625 0l0 -0.46875q0.15625 -0.015625 0.328125 -0.03125q0.1875 -0.015625 0.3125 -0.0625q0.203125 -0.0625 0.296875 -0.21875q0.09375 -0.15625 0.09375 -0.421875l0 -4.359375q0 -0.234375 -0.109375 -0.421875q-0.09375 -0.1875 -0.28125 -0.3125q-0.140625 -0.09375 -0.40625 -0.140625q-0.25 -0.0625 -0.453125 -0.078125l0 -0.46875l2.484375 -0.15625l0.09375 0.09375l0 5.765625q0 0.25 0.09375 0.421875q0.109375 0.15625 0.3125 0.234375q0.15625 0.0625 0.296875 0.109375q0.15625 0.03125 0.34375 0.046875l0 0.46875zm-0.890625 -9.921875q0 0.40625 -0.28125 0.71875q-0.265625 0.296875 -0.65625 0.296875q-0.359375 0 -0.640625 -0.28125q-0.265625 -0.296875 -0.265625 -0.671875q0 -0.390625 0.265625 -0.6875q0.28125 -0.296875 0.640625 -0.296875q0.40625 0 0.671875 0.28125q0.265625 0.265625 0.265625 0.640625zm13.856323 9.921875l-3.453125 0l0 -0.46875q0.171875 -0.015625 0.328125 -0.03125q0.171875 -0.015625 0.3125 -0.0625q0.1875 -0.0625 0.28125 -0.21875q0.109375 -0.15625 0.109375 -0.421875l0 -3.640625q0 -0.75 -0.34375 -1.140625q-0.34375 -0.40625 -0.84375 -0.40625q-0.359375 0 -0.671875 0.109375q-0.296875 0.09375 -0.5625 0.296875q-0.203125 0.15625 -0.34375 0.34375q-0.140625 0.171875 -0.203125 0.296875l0 4.0625q0 0.265625 0.078125 0.421875q0.09375 0.15625 0.296875 0.25q0.15625 0.0625 0.28125 0.09375q0.140625 0.03125 0.359375 0.046875l0 0.46875l-3.375 0l0 -0.46875q0.171875 -0.015625 0.328125 -0.03125q0.15625 -0.015625 0.28125 -0.0625q0.203125 -0.0625 0.296875 -0.21875q0.09375 -0.15625 0.09375 -0.421875l0 -3.640625q0 -0.75 -0.34375 -1.140625q-0.328125 -0.40625 -0.84375 -0.40625q-0.34375 0 -0.65625 0.109375q-0.3125 0.109375 -0.5625 0.296875q-0.21875 0.15625 -0.359375 0.359375q-0.140625 0.1875 -0.203125 0.296875l0 4.046875q0 0.234375 0.09375 0.40625q0.09375 0.15625 0.296875 0.25q0.15625 0.0625 0.3125 0.109375q0.15625 0.03125 0.34375 0.046875l0 0.46875l-3.421875 0l0 -0.46875q0.171875 -0.015625 0.34375 -0.03125q0.171875 -0.015625 0.296875 -0.0625q0.203125 -0.0625 0.296875 -0.21875q0.09375 -0.15625 0.09375 -0.421875l0 -4.390625q0 -0.21875 -0.109375 -0.40625q-0.09375 -0.1875 -0.28125 -0.3125q-0.140625 -0.078125 -0.34375 -0.125q-0.1875 -0.0625 -0.40625 -0.078125l0 -0.46875l2.359375 -0.15625l0.109375 0.09375l0 1.015625l0.046875 0q0.171875 -0.1875 0.421875 -0.421875q0.265625 -0.25 0.484375 -0.390625q0.265625 -0.171875 0.640625 -0.28125q0.375 -0.125 0.8125 -0.125q0.6875 0 1.171875 0.375q0.5 0.359375 0.703125 0.890625q0.265625 -0.25 0.453125 -0.4375q0.203125 -0.203125 0.53125 -0.40625q0.265625 -0.1875 0.625 -0.296875q0.375 -0.125 0.828125 -0.125q0.890625 0 1.40625 0.59375q0.53125 0.578125 0.53125 1.796875l0 3.578125q0 0.265625 0.078125 0.421875q0.09375 0.15625 0.3125 0.25q0.15625 0.0625 0.3125 0.09375q0.171875 0.03125 0.375 0.046875l0 0.46875zm3.3632202 -0.25q0 0.515625 -0.234375 0.96875q-0.21875 0.46875 -0.53125 0.796875q-0.296875 0.34375 -0.640625 0.609375q-0.34375 0.265625 -0.640625 0.40625l-0.328125 -0.484375q0.34375 -0.203125 0.609375 -0.421875q0.28125 -0.21875 0.453125 -0.4375q0.21875 -0.25 0.359375 -0.546875q0.15625 -0.28125 0.203125 -0.65625l-0.359375 0q-0.484375 0 -0.75 -0.25q-0.265625 -0.25 -0.265625 -0.671875q0 -0.296875 0.234375 -0.578125q0.25 -0.28125 0.671875 -0.28125q0.609375 0 0.90625 0.40625q0.3125 0.40625 0.3125 1.140625z" fill-rule="nonzero"/><path fill="#000000" d="m383.84366 496.91898q-0.203125 0 -0.5 0.046875q-0.296875 0.046875 -0.5 0.125q-0.25 0.078125 -0.34375 0.28125q-0.078125 0.203125 -0.078125 0.4375l0 6.015625q0 0.46875 -0.1875 1.0q-0.1875 0.53125 -0.5625 0.953125q-0.421875 0.484375 -1.0 0.765625q-0.578125 0.265625 -1.328125 0.265625q-1.171875 0 -1.90625 -0.65625q-0.71875 -0.65625 -0.71875 -1.765625q0 -0.484375 0.25 -0.859375q0.25 -0.375 0.734375 -0.375q0.421875 0 0.6875 0.234375q0.265625 0.234375 0.265625 0.625q0 0.234375 -0.09375 0.46875q-0.09375 0.21875 -0.21875 0.40625q-0.09375 0.15625 -0.234375 0.390625q-0.140625 0.21875 -0.1875 0.390625q0.140625 0.234375 0.453125 0.421875q0.328125 0.171875 0.859375 0.171875q0.53125 0 0.859375 -0.234375q0.328125 -0.234375 0.5 -0.640625q0.15625 -0.375 0.21875 -0.921875q0.078125 -0.546875 0.078125 -1.21875l0 -5.375q0 -0.25 -0.09375 -0.40625q-0.078125 -0.171875 -0.328125 -0.296875q-0.234375 -0.125 -0.5625 -0.171875q-0.328125 -0.0625 -0.546875 -0.078125l0 -0.515625l4.484375 0l0 0.515625zm7.1638794 7.984375q-0.4375 0.84375 -1.1875 1.34375q-0.734375 0.5 -1.703125 0.5q-0.859375 0 -1.5 -0.296875q-0.640625 -0.3125 -1.046875 -0.828125q-0.421875 -0.515625 -0.625 -1.1875q-0.203125 -0.6875 -0.203125 -1.453125q0 -0.6875 0.21875 -1.34375q0.21875 -0.671875 0.640625 -1.203125q0.40625 -0.515625 1.0 -0.8125q0.609375 -0.3125 1.375 -0.3125q0.765625 0 1.3125 0.25q0.5625 0.234375 0.90625 0.65625q0.328125 0.390625 0.484375 0.9375q0.15625 0.546875 0.15625 1.1875l0 0.46875l-4.671875 0q0 0.6875 0.125 1.265625q0.140625 0.5625 0.421875 0.984375q0.28125 0.421875 0.734375 0.671875q0.453125 0.234375 1.078125 0.234375q0.640625 0 1.09375 -0.296875q0.46875 -0.296875 0.890625 -1.078125l0.5 0.3125zm-1.578125 -2.6875q0 -0.40625 -0.078125 -0.859375q-0.0625 -0.46875 -0.203125 -0.765625q-0.171875 -0.34375 -0.46875 -0.546875q-0.28125 -0.203125 -0.71875 -0.203125q-0.75 0 -1.25 0.625q-0.5 0.625 -0.546875 1.75l3.265625 0zm7.0535583 0.890625q0.296875 0.25 0.453125 0.59375q0.15625 0.328125 0.15625 0.8125q0 0.984375 -0.734375 1.609375q-0.734375 0.625 -1.890625 0.625q-0.625 0 -1.140625 -0.21875q-0.515625 -0.21875 -0.734375 -0.40625l-0.15625 0.453125l-0.53125 0l-0.078125 -2.453125l0.5 0q0.0625 0.28125 0.25 0.65625q0.1875 0.375 0.4375 0.671875q0.28125 0.3125 0.671875 0.53125q0.390625 0.21875 0.875 0.21875q0.6875 0 1.0625 -0.3125q0.375 -0.3125 0.375 -0.890625q0 -0.3125 -0.125 -0.515625q-0.109375 -0.21875 -0.34375 -0.390625q-0.234375 -0.171875 -0.578125 -0.296875q-0.34375 -0.125 -0.765625 -0.265625q-0.328125 -0.09375 -0.75 -0.265625q-0.40625 -0.1875 -0.703125 -0.421875q-0.3125 -0.25 -0.515625 -0.609375q-0.203125 -0.359375 -0.203125 -0.859375q0 -0.859375 0.640625 -1.453125q0.65625 -0.609375 1.734375 -0.609375q0.421875 0 0.84375 0.109375q0.4375 0.09375 0.703125 0.25l0.171875 -0.375l0.515625 0l0.109375 2.265625l-0.5 0q-0.15625 -0.75 -0.65625 -1.21875q-0.484375 -0.484375 -1.203125 -0.484375q-0.59375 0 -0.9375 0.296875q-0.328125 0.28125 -0.328125 0.703125q0 0.328125 0.109375 0.546875q0.125 0.203125 0.34375 0.359375q0.21875 0.140625 0.53125 0.265625q0.328125 0.125 0.8125 0.28125q0.46875 0.15625 0.890625 0.359375q0.421875 0.1875 0.6875 0.4375zm6.333374 0q0.296875 0.25 0.453125 0.59375q0.15625 0.328125 0.15625 0.8125q0 0.984375 -0.734375 1.609375q-0.734375 0.625 -1.890625 0.625q-0.625 0 -1.140625 -0.21875q-0.515625 -0.21875 -0.734375 -0.40625l-0.15625 0.453125l-0.53125 0l-0.078125 -2.453125l0.5 0q0.0625 0.28125 0.25 0.65625q0.1875 0.375 0.4375 0.671875q0.28125 0.3125 0.671875 0.53125q0.390625 0.21875 0.875 0.21875q0.6875 0 1.0625 -0.3125q0.375 -0.3125 0.375 -0.890625q0 -0.3125 -0.125 -0.515625q-0.109375 -0.21875 -0.34375 -0.390625q-0.234375 -0.171875 -0.578125 -0.296875q-0.34375 -0.125 -0.765625 -0.265625q-0.328125 -0.09375 -0.75 -0.265625q-0.40625 -0.1875 -0.703125 -0.421875q-0.3125 -0.25 -0.515625 -0.609375q-0.203125 -0.359375 -0.203125 -0.859375q0 -0.859375 0.640625 -1.453125q0.65625 -0.609375 1.734375 -0.609375q0.421875 0 0.84375 0.109375q0.4375 0.09375 0.703125 0.25l0.171875 -0.375l0.515625 0l0.109375 2.265625l-0.5 0q-0.15625 -0.75 -0.65625 -1.21875q-0.484375 -0.484375 -1.203125 -0.484375q-0.59375 0 -0.9375 0.296875q-0.328125 0.28125 -0.328125 0.703125q0 0.328125 0.109375 0.546875q0.125 0.203125 0.34375 0.359375q0.21875 0.140625 0.53125 0.265625q0.328125 0.125 0.8125 0.28125q0.46875 0.15625 0.890625 0.359375q0.421875 0.1875 0.6875 0.4375zm5.098999 3.453125l-3.40625 0l0 -0.46875q0.15625 -0.015625 0.328125 -0.03125q0.1875 -0.015625 0.3125 -0.0625q0.203125 -0.0625 0.296875 -0.21875q0.09375 -0.15625 0.09375 -0.421875l0 -4.359375q0 -0.234375 -0.109375 -0.421875q-0.09375 -0.1875 -0.28125 -0.3125q-0.140625 -0.09375 -0.40625 -0.140625q-0.25 -0.0625 -0.453125 -0.078125l0 -0.46875l2.484375 -0.15625l0.09375 0.09375l0 5.765625q0 0.25 0.09375 0.421875q0.109375 0.15625 0.3125 0.234375q0.15625 0.0625 0.296875 0.109375q0.15625 0.03125 0.34375 0.046875l0 0.46875zm-0.890625 -9.921875q0 0.40625 -0.28125 0.71875q-0.265625 0.296875 -0.65625 0.296875q-0.359375 0 -0.640625 -0.28125q-0.265625 -0.296875 -0.265625 -0.671875q0 -0.390625 0.265625 -0.6875q0.28125 -0.296875 0.640625 -0.296875q0.40625 0 0.671875 0.28125q0.265625 0.265625 0.265625 0.640625zm5.0281982 10.109375q-1.53125 0 -2.40625 -1.015625q-0.859375 -1.015625 -0.859375 -2.734375q0 -0.734375 0.234375 -1.375q0.234375 -0.65625 0.671875 -1.1875q0.421875 -0.515625 1.0625 -0.8125q0.640625 -0.3125 1.390625 -0.3125q1.03125 0 1.6875 0.5q0.65625 0.484375 0.65625 1.34375q0 0.359375 -0.171875 0.640625q-0.171875 0.265625 -0.578125 0.265625q-0.421875 0 -0.65625 -0.203125q-0.21875 -0.21875 -0.21875 -0.484375q0 -0.328125 0.078125 -0.65625q0.09375 -0.34375 0.09375 -0.5q-0.125 -0.21875 -0.375 -0.296875q-0.25 -0.078125 -0.546875 -0.078125q-0.34375 0 -0.65625 0.15625q-0.3125 0.140625 -0.609375 0.53125q-0.265625 0.359375 -0.4375 0.96875q-0.15625 0.609375 -0.15625 1.453125q0 1.328125 0.59375 2.171875q0.59375 0.84375 1.546875 0.84375q0.703125 0 1.171875 -0.34375q0.46875 -0.34375 0.859375 -1.015625l0.46875 0.3125q-0.484375 0.84375 -1.265625 1.34375q-0.765625 0.484375 -1.578125 0.484375zm10.077332 -0.3125q-0.34375 0.125 -0.59375 0.1875q-0.25 0.078125 -0.578125 0.078125q-0.5625 0 -0.890625 -0.25q-0.328125 -0.265625 -0.421875 -0.765625l-0.046875 0q-0.46875 0.515625 -1.0 0.78125q-0.53125 0.265625 -1.28125 0.265625q-0.796875 0 -1.3125 -0.484375q-0.5 -0.484375 -0.5 -1.265625q0 -0.40625 0.109375 -0.734375q0.109375 -0.328125 0.34375 -0.578125q0.171875 -0.21875 0.46875 -0.375q0.296875 -0.171875 0.546875 -0.28125q0.328125 -0.125 1.3125 -0.453125q0.984375 -0.328125 1.328125 -0.515625l0 -0.703125q0 -0.09375 -0.046875 -0.359375q-0.03125 -0.265625 -0.15625 -0.5q-0.140625 -0.265625 -0.40625 -0.453125q-0.265625 -0.203125 -0.75 -0.203125q-0.328125 0 -0.609375 0.109375q-0.28125 0.109375 -0.390625 0.234375q0 0.140625 0.0625 0.421875q0.078125 0.28125 0.078125 0.515625q0 0.25 -0.234375 0.46875q-0.21875 0.203125 -0.625 0.203125q-0.359375 0 -0.53125 -0.25q-0.15625 -0.265625 -0.15625 -0.578125q0 -0.328125 0.21875 -0.625q0.234375 -0.3125 0.609375 -0.546875q0.328125 -0.203125 0.78125 -0.328125q0.453125 -0.140625 0.890625 -0.140625q0.609375 0 1.046875 0.078125q0.453125 0.078125 0.8125 0.359375q0.375 0.25 0.5625 0.71875q0.1875 0.453125 0.1875 1.15625q0 1.03125 -0.03125 1.828125q-0.015625 0.78125 -0.015625 1.71875q0 0.28125 0.09375 0.453125q0.109375 0.15625 0.3125 0.265625q0.09375 0.078125 0.328125 0.078125q0.234375 0 0.484375 0l0 0.46875zm-2.5 -3.78125q-0.609375 0.171875 -1.078125 0.34375q-0.453125 0.171875 -0.84375 0.4375q-0.359375 0.234375 -0.5625 0.578125q-0.203125 0.328125 -0.203125 0.78125q0 0.59375 0.3125 0.875q0.3125 0.28125 0.78125 0.28125q0.515625 0 0.890625 -0.25q0.390625 -0.25 0.65625 -0.578125l0.046875 -2.46875zm14.686218 -3.75q0 0.796875 -0.3125 1.421875q-0.3125 0.609375 -0.859375 1.0q-0.546875 0.40625 -1.203125 0.59375q-0.640625 0.1875 -1.375 0.1875l-1.140625 0l0 3.078125q0 0.25 0.078125 0.4375q0.09375 0.1875 0.34375 0.28125q0.140625 0.0625 0.453125 0.109375q0.328125 0.03125 0.609375 0.03125l0 0.515625l-4.359375 0l0 -0.515625q0.171875 0 0.5 -0.03125q0.328125 -0.046875 0.453125 -0.109375q0.21875 -0.09375 0.3125 -0.265625q0.09375 -0.1875 0.09375 -0.453125l0 -7.328125q0 -0.25 -0.078125 -0.453125q-0.0625 -0.203125 -0.328125 -0.296875q-0.28125 -0.09375 -0.546875 -0.125q-0.265625 -0.046875 -0.453125 -0.0625l0 -0.515625l4.625 0q1.421875 0 2.296875 0.6875q0.890625 0.6875 0.890625 1.8125zm-2.171875 1.734375q0.25 -0.34375 0.328125 -0.703125q0.078125 -0.375 0.078125 -0.671875q0 -0.40625 -0.109375 -0.828125q-0.09375 -0.421875 -0.328125 -0.734375q-0.25 -0.34375 -0.65625 -0.515625q-0.40625 -0.1875 -1.015625 -0.1875l-1.015625 0l0 4.484375l0.734375 0q0.78125 0 1.25 -0.234375q0.484375 -0.25 0.734375 -0.609375zm9.844574 5.796875q-0.34375 0.125 -0.59375 0.1875q-0.25 0.078125 -0.578125 0.078125q-0.5625 0 -0.890625 -0.25q-0.328125 -0.265625 -0.421875 -0.765625l-0.046875 0q-0.46875 0.515625 -1.0 0.78125q-0.53125 0.265625 -1.28125 0.265625q-0.796875 0 -1.3125 -0.484375q-0.5 -0.484375 -0.5 -1.265625q0 -0.40625 0.109375 -0.734375q0.109375 -0.328125 0.34375 -0.578125q0.171875 -0.21875 0.46875 -0.375q0.296875 -0.171875 0.546875 -0.28125q0.328125 -0.125 1.3125 -0.453125q0.984375 -0.328125 1.328125 -0.515625l0 -0.703125q0 -0.09375 -0.046875 -0.359375q-0.03125 -0.265625 -0.15625 -0.5q-0.140625 -0.265625 -0.40625 -0.453125q-0.265625 -0.203125 -0.75 -0.203125q-0.328125 0 -0.609375 0.109375q-0.28125 0.109375 -0.390625 0.234375q0 0.140625 0.0625 0.421875q0.078125 0.28125 0.078125 0.515625q0 0.25 -0.234375 0.46875q-0.21875 0.203125 -0.625 0.203125q-0.359375 0 -0.53125 -0.25q-0.15625 -0.265625 -0.15625 -0.578125q0 -0.328125 0.21875 -0.625q0.234375 -0.3125 0.609375 -0.546875q0.328125 -0.203125 0.78125 -0.328125q0.453125 -0.140625 0.890625 -0.140625q0.609375 0 1.046875 0.078125q0.453125 0.078125 0.8125 0.359375q0.375 0.25 0.5625 0.71875q0.1875 0.453125 0.1875 1.15625q0 1.03125 -0.03125 1.828125q-0.015625 0.78125 -0.015625 1.71875q0 0.28125 0.09375 0.453125q0.109375 0.15625 0.3125 0.265625q0.09375 0.078125 0.328125 0.078125q0.234375 0 0.484375 0l0 0.46875zm-2.5 -3.78125q-0.609375 0.171875 -1.078125 0.34375q-0.453125 0.171875 -0.84375 0.4375q-0.359375 0.234375 -0.5625 0.578125q-0.203125 0.328125 -0.203125 0.78125q0 0.59375 0.3125 0.875q0.3125 0.28125 0.78125 0.28125q0.515625 0 0.890625 -0.25q0.390625 -0.25 0.65625 -0.578125l0.046875 -2.46875zm7.557251 3.59375q-0.46875 0.203125 -0.890625 0.328125q-0.40625 0.140625 -1.0 0.140625q-0.890625 0 -1.265625 -0.453125q-0.359375 -0.453125 -0.359375 -1.265625l0 -4.78125l-1.265625 0l0 -0.6875l1.296875 0l0 -2.1875l1.3125 0l0 2.1875l2.015625 0l0 0.6875l-2.0 0l0 3.953125q0 0.4375 0.03125 0.734375q0.03125 0.296875 0.140625 0.515625q0.125 0.203125 0.34375 0.3125q0.234375 0.109375 0.625 0.109375q0.171875 0 0.515625 -0.03125q0.359375 -0.03125 0.5 -0.078125l0 0.515625zm7.575165 -3.28125q0 0.734375 -0.234375 1.453125q-0.234375 0.71875 -0.671875 1.21875q-0.5 0.578125 -1.15625 0.859375q-0.640625 0.28125 -1.453125 0.28125q-0.671875 0 -1.28125 -0.25q-0.609375 -0.265625 -1.078125 -0.75q-0.46875 -0.484375 -0.75 -1.171875q-0.265625 -0.6875 -0.265625 -1.546875q0 -1.65625 0.953125 -2.703125q0.96875 -1.046875 2.53125 -1.046875q1.484375 0 2.4375 1.0q0.96875 0.984375 0.96875 2.65625zm-1.484375 0.015625q0 -0.546875 -0.109375 -1.140625q-0.09375 -0.59375 -0.3125 -1.015625q-0.234375 -0.4375 -0.609375 -0.703125q-0.359375 -0.28125 -0.90625 -0.28125q-0.546875 0 -0.9375 0.28125q-0.390625 0.265625 -0.640625 0.734375q-0.21875 0.4375 -0.3125 1.0q-0.09375 0.5625 -0.09375 1.078125q0 0.6875 0.109375 1.28125q0.109375 0.578125 0.359375 1.03125q0.234375 0.453125 0.59375 0.71875q0.375 0.265625 0.921875 0.265625q0.890625 0 1.40625 -0.859375q0.53125 -0.875 0.53125 -2.390625zm10.306885 3.578125l-3.453125 0l0 -0.46875q0.15625 -0.015625 0.34375 -0.03125q0.203125 -0.015625 0.328125 -0.0625q0.203125 -0.0625 0.296875 -0.21875q0.109375 -0.15625 0.109375 -0.421875l0 -3.625q0 -0.75 -0.359375 -1.15625q-0.359375 -0.40625 -0.859375 -0.40625q-0.375 0 -0.703125 0.125q-0.3125 0.109375 -0.546875 0.28125q-0.234375 0.15625 -0.375 0.34375q-0.140625 0.1875 -0.203125 0.3125l0 4.046875q0 0.25 0.09375 0.40625q0.09375 0.15625 0.296875 0.25q0.15625 0.0625 0.328125 0.109375q0.171875 0.03125 0.359375 0.046875l0 0.46875l-3.453125 0l0 -0.46875q0.171875 -0.015625 0.34375 -0.03125q0.171875 -0.015625 0.296875 -0.0625q0.203125 -0.0625 0.296875 -0.21875q0.09375 -0.15625 0.09375 -0.421875l0 -4.359375q0 -0.234375 -0.109375 -0.4375q-0.09375 -0.21875 -0.28125 -0.34375q-0.140625 -0.078125 -0.328125 -0.109375q-0.171875 -0.046875 -0.390625 -0.0625l0 -0.46875l2.34375 -0.15625l0.109375 0.09375l0 1.0l0.03125 0q0.171875 -0.171875 0.421875 -0.40625q0.265625 -0.25 0.484375 -0.390625q0.265625 -0.171875 0.625 -0.28125q0.375 -0.125 0.828125 -0.125q1.03125 0 1.515625 0.640625q0.484375 0.625 0.484375 1.671875l0 3.671875q0 0.25 0.078125 0.40625q0.09375 0.15625 0.3125 0.25q0.171875 0.0625 0.296875 0.09375q0.125 0.03125 0.34375 0.046875l0 0.46875zm7.1279907 -1.65625q-0.4375 0.84375 -1.1875 1.34375q-0.734375 0.5 -1.703125 0.5q-0.859375 0 -1.5 -0.296875q-0.640625 -0.3125 -1.046875 -0.828125q-0.421875 -0.515625 -0.625 -1.1875q-0.203125 -0.6875 -0.203125 -1.453125q0 -0.6875 0.21875 -1.34375q0.21875 -0.671875 0.640625 -1.203125q0.40625 -0.515625 1.0 -0.8125q0.609375 -0.3125 1.375 -0.3125q0.765625 0 1.3125 0.25q0.5625 0.234375 0.90625 0.65625q0.328125 0.390625 0.484375 0.9375q0.15625 0.546875 0.15625 1.1875l0 0.46875l-4.671875 0q0 0.6875 0.125 1.265625q0.140625 0.5625 0.421875 0.984375q0.28125 0.421875 0.734375 0.671875q0.453125 0.234375 1.078125 0.234375q0.640625 0 1.09375 -0.296875q0.46875 -0.296875 0.890625 -1.078125l0.5 0.3125zm-1.578125 -2.6875q0 -0.40625 -0.078125 -0.859375q-0.0625 -0.46875 -0.203125 -0.765625q-0.171875 -0.34375 -0.46875 -0.546875q-0.28125 -0.203125 -0.71875 -0.203125q-0.75 0 -1.25 0.625q-0.5 0.625 -0.546875 1.75l3.265625 0zm4.944153 4.09375q0 0.515625 -0.234375 0.96875q-0.21875 0.46875 -0.53125 0.796875q-0.296875 0.34375 -0.640625 0.609375q-0.34375 0.265625 -0.640625 0.40625l-0.328125 -0.484375q0.34375 -0.203125 0.609375 -0.421875q0.28125 -0.21875 0.453125 -0.4375q0.21875 -0.25 0.359375 -0.546875q0.15625 -0.28125 0.203125 -0.65625l-0.359375 0q-0.484375 0 -0.75 -0.25q-0.265625 -0.25 -0.265625 -0.671875q0 -0.296875 0.234375 -0.578125q0.25 -0.28125 0.671875 -0.28125q0.609375 0 0.90625 0.40625q0.3125 0.40625 0.3125 1.140625zm13.282471 -2.765625l-0.21875 3.015625l-7.9375 0l0 -0.515625q0.171875 0 0.5 -0.03125q0.328125 -0.046875 0.453125 -0.109375q0.21875 -0.09375 0.3125 -0.265625q0.09375 -0.1875 0.09375 -0.453125l0 -7.28125q0 -0.234375 -0.09375 -0.421875q-0.078125 -0.1875 -0.3125 -0.296875q-0.171875 -0.09375 -0.46875 -0.171875q-0.296875 -0.078125 -0.484375 -0.09375l0 -0.515625l4.28125 0l0 0.515625q-0.203125 0 -0.515625 0.0625q-0.3125 0.0625 -0.46875 0.125q-0.234375 0.078125 -0.328125 0.296875q-0.09375 0.203125 -0.09375 0.4375l0 6.8125q0 0.46875 0.046875 0.734375q0.046875 0.265625 0.21875 0.40625q0.171875 0.125 0.5 0.171875q0.328125 0.03125 0.90625 0.03125q0.265625 0 0.546875 -0.015625q0.296875 -0.015625 0.546875 -0.046875q0.25 -0.046875 0.453125 -0.125q0.21875 -0.078125 0.328125 -0.1875q0.28125 -0.328125 0.671875 -1.0q0.390625 -0.671875 0.546875 -1.078125l0.515625 0zm3.9234009 3.015625l-3.40625 0l0 -0.46875q0.15625 -0.015625 0.328125 -0.03125q0.1875 -0.015625 0.3125 -0.0625q0.203125 -0.0625 0.296875 -0.21875q0.09375 -0.15625 0.09375 -0.421875l0 -4.359375q0 -0.234375 -0.109375 -0.421875q-0.09375 -0.1875 -0.28125 -0.3125q-0.140625 -0.09375 -0.40625 -0.140625q-0.25 -0.0625 -0.453125 -0.078125l0 -0.46875l2.484375 -0.15625l0.09375 0.09375l0 5.765625q0 0.25 0.09375 0.421875q0.109375 0.15625 0.3125 0.234375q0.15625 0.0625 0.296875 0.109375q0.15625 0.03125 0.34375 0.046875l0 0.46875zm-0.890625 -9.921875q0 0.40625 -0.28125 0.71875q-0.265625 0.296875 -0.65625 0.296875q-0.359375 0 -0.640625 -0.28125q-0.265625 -0.296875 -0.265625 -0.671875q0 -0.390625 0.265625 -0.6875q0.28125 -0.296875 0.640625 -0.296875q0.40625 0 0.671875 0.28125q0.265625 0.265625 0.265625 0.640625zm8.450073 9.796875q-0.34375 0.125 -0.59375 0.1875q-0.25 0.078125 -0.578125 0.078125q-0.5625 0 -0.890625 -0.25q-0.328125 -0.265625 -0.421875 -0.765625l-0.046875 0q-0.46875 0.515625 -1.0 0.78125q-0.53125 0.265625 -1.28125 0.265625q-0.796875 0 -1.3125 -0.484375q-0.5 -0.484375 -0.5 -1.265625q0 -0.40625 0.109375 -0.734375q0.109375 -0.328125 0.34375 -0.578125q0.171875 -0.21875 0.46875 -0.375q0.296875 -0.171875 0.546875 -0.28125q0.328125 -0.125 1.3125 -0.453125q0.984375 -0.328125 1.328125 -0.515625l0 -0.703125q0 -0.09375 -0.046875 -0.359375q-0.03125 -0.265625 -0.15625 -0.5q-0.140625 -0.265625 -0.40625 -0.453125q-0.265625 -0.203125 -0.75 -0.203125q-0.328125 0 -0.609375 0.109375q-0.28125 0.109375 -0.390625 0.234375q0 0.140625 0.0625 0.421875q0.078125 0.28125 0.078125 0.515625q0 0.25 -0.234375 0.46875q-0.21875 0.203125 -0.625 0.203125q-0.359375 0 -0.53125 -0.25q-0.15625 -0.265625 -0.15625 -0.578125q0 -0.328125 0.21875 -0.625q0.234375 -0.3125 0.609375 -0.546875q0.328125 -0.203125 0.78125 -0.328125q0.453125 -0.140625 0.890625 -0.140625q0.609375 0 1.046875 0.078125q0.453125 0.078125 0.8125 0.359375q0.375 0.25 0.5625 0.71875q0.1875 0.453125 0.1875 1.15625q0 1.03125 -0.03125 1.828125q-0.015625 0.78125 -0.015625 1.71875q0 0.28125 0.09375 0.453125q0.109375 0.15625 0.3125 0.265625q0.09375 0.078125 0.328125 0.078125q0.234375 0 0.484375 0l0 0.46875zm-2.5 -3.78125q-0.609375 0.171875 -1.078125 0.34375q-0.453125 0.171875 -0.84375 0.4375q-0.359375 0.234375 -0.5625 0.578125q-0.203125 0.328125 -0.203125 0.78125q0 0.59375 0.3125 0.875q0.3125 0.28125 0.78125 0.28125q0.515625 0 0.890625 -0.25q0.390625 -0.25 0.65625 -0.578125l0.046875 -2.46875zm10.994751 3.90625l-3.453125 0l0 -0.46875q0.15625 -0.015625 0.34375 -0.03125q0.203125 -0.015625 0.328125 -0.0625q0.203125 -0.0625 0.296875 -0.21875q0.109375 -0.15625 0.109375 -0.421875l0 -3.625q0 -0.75 -0.359375 -1.15625q-0.359375 -0.40625 -0.859375 -0.40625q-0.375 0 -0.703125 0.125q-0.3125 0.109375 -0.546875 0.28125q-0.234375 0.15625 -0.375 0.34375q-0.140625 0.1875 -0.203125 0.3125l0 4.046875q0 0.25 0.09375 0.40625q0.09375 0.15625 0.296875 0.25q0.15625 0.0625 0.328125 0.109375q0.171875 0.03125 0.359375 0.046875l0 0.46875l-3.453125 0l0 -0.46875q0.171875 -0.015625 0.34375 -0.03125q0.171875 -0.015625 0.296875 -0.0625q0.203125 -0.0625 0.296875 -0.21875q0.09375 -0.15625 0.09375 -0.421875l0 -4.359375q0 -0.234375 -0.109375 -0.4375q-0.09375 -0.21875 -0.28125 -0.34375q-0.140625 -0.078125 -0.328125 -0.109375q-0.171875 -0.046875 -0.390625 -0.0625l0 -0.46875l2.34375 -0.15625l0.109375 0.09375l0 1.0l0.03125 0q0.171875 -0.171875 0.421875 -0.40625q0.265625 -0.25 0.484375 -0.390625q0.265625 -0.171875 0.625 -0.28125q0.375 -0.125 0.828125 -0.125q1.03125 0 1.515625 0.640625q0.484375 0.625 0.484375 1.671875l0 3.671875q0 0.25 0.078125 0.40625q0.09375 0.15625 0.3125 0.25q0.171875 0.0625 0.296875 0.09375q0.125 0.03125 0.34375 0.046875l0 0.46875zm8.65918 0l-3.453125 0l0 -0.46875q0.15625 -0.015625 0.34375 -0.03125q0.203125 -0.015625 0.328125 -0.0625q0.203125 -0.0625 0.296875 -0.21875q0.109375 -0.15625 0.109375 -0.421875l0 -3.625q0 -0.75 -0.359375 -1.15625q-0.359375 -0.40625 -0.859375 -0.40625q-0.375 0 -0.703125 0.125q-0.3125 0.109375 -0.546875 0.28125q-0.234375 0.15625 -0.375 0.34375q-0.140625 0.1875 -0.203125 0.3125l0 4.046875q0 0.25 0.09375 0.40625q0.09375 0.15625 0.296875 0.25q0.15625 0.0625 0.328125 0.109375q0.171875 0.03125 0.359375 0.046875l0 0.46875l-3.453125 0l0 -0.46875q0.171875 -0.015625 0.34375 -0.03125q0.171875 -0.015625 0.296875 -0.0625q0.203125 -0.0625 0.296875 -0.21875q0.09375 -0.15625 0.09375 -0.421875l0 -4.359375q0 -0.234375 -0.109375 -0.4375q-0.09375 -0.21875 -0.28125 -0.34375q-0.140625 -0.078125 -0.328125 -0.109375q-0.171875 -0.046875 -0.390625 -0.0625l0 -0.46875l2.34375 -0.15625l0.109375 0.09375l0 1.0l0.03125 0q0.171875 -0.171875 0.421875 -0.40625q0.265625 -0.25 0.484375 -0.390625q0.265625 -0.171875 0.625 -0.28125q0.375 -0.125 0.828125 -0.125q1.03125 0 1.515625 0.640625q0.484375 0.625 0.484375 1.671875l0 3.671875q0 0.25 0.078125 0.40625q0.09375 0.15625 0.3125 0.25q0.171875 0.0625 0.296875 0.09375q0.125 0.03125 0.34375 0.046875l0 0.46875zm7.1279907 -1.65625q-0.4375 0.84375 -1.1875 1.34375q-0.734375 0.5 -1.703125 0.5q-0.859375 0 -1.5 -0.296875q-0.640625 -0.3125 -1.046875 -0.828125q-0.421875 -0.515625 -0.625 -1.1875q-0.203125 -0.6875 -0.203125 -1.453125q0 -0.6875 0.21875 -1.34375q0.21875 -0.671875 0.640625 -1.203125q0.40625 -0.515625 1.0 -0.8125q0.609375 -0.3125 1.375 -0.3125q0.765625 0 1.3125 0.25q0.5625 0.234375 0.90625 0.65625q0.328125 0.390625 0.484375 0.9375q0.15625 0.546875 0.15625 1.1875l0 0.46875l-4.671875 0q0 0.6875 0.125 1.265625q0.140625 0.5625 0.421875 0.984375q0.28125 0.421875 0.734375 0.671875q0.453125 0.234375 1.078125 0.234375q0.640625 0 1.09375 -0.296875q0.46875 -0.296875 0.890625 -1.078125l0.5 0.3125zm-1.578125 -2.6875q0 -0.40625 -0.078125 -0.859375q-0.0625 -0.46875 -0.203125 -0.765625q-0.171875 -0.34375 -0.46875 -0.546875q-0.28125 -0.203125 -0.71875 -0.203125q-0.75 0 -1.25 0.625q-0.5 0.625 -0.546875 1.75l3.265625 0zm18.338806 4.34375l-4.484375 0l0 -0.515625q0.25 0 0.625 -0.03125q0.390625 -0.046875 0.53125 -0.140625q0.21875 -0.125 0.3125 -0.296875q0.109375 -0.1875 0.109375 -0.453125l0 -7.375l-0.109375 0l-3.453125 8.640625l-0.359375 0l-3.296875 -8.828125l-0.09375 0l0 6.0625q0 0.890625 0.109375 1.34375q0.109375 0.453125 0.34375 0.65625q0.15625 0.15625 0.640625 0.296875q0.5 0.125 0.640625 0.125l0 0.515625l-4.09375 0l0 -0.515625q0.328125 -0.015625 0.671875 -0.09375q0.359375 -0.078125 0.546875 -0.25q0.25 -0.1875 0.34375 -0.59375q0.09375 -0.421875 0.09375 -1.40625l0 -5.1875q0 -0.453125 -0.109375 -0.734375q-0.09375 -0.296875 -0.296875 -0.46875q-0.234375 -0.203125 -0.5625 -0.28125q-0.3125 -0.09375 -0.625 -0.109375l0 -0.515625l3.46875 0l2.90625 7.609375l2.484375 -6.359375q0.125 -0.359375 0.21875 -0.734375q0.109375 -0.390625 0.109375 -0.515625l3.3125 0l0 0.515625q-0.203125 0 -0.515625 0.0625q-0.296875 0.046875 -0.453125 0.109375q-0.234375 0.078125 -0.328125 0.28125q-0.078125 0.203125 -0.078125 0.4375l0 7.3125q0 0.25 0.078125 0.421875q0.09375 0.171875 0.328125 0.3125q0.140625 0.0625 0.46875 0.125q0.328125 0.0625 0.515625 0.0625l0 0.515625zm7.871216 -0.125q-0.34375 0.125 -0.59375 0.1875q-0.25 0.078125 -0.578125 0.078125q-0.5625 0 -0.890625 -0.25q-0.328125 -0.265625 -0.421875 -0.765625l-0.046875 0q-0.46875 0.515625 -1.0 0.78125q-0.53125 0.265625 -1.28125 0.265625q-0.796875 0 -1.3125 -0.484375q-0.5 -0.484375 -0.5 -1.265625q0 -0.40625 0.109375 -0.734375q0.109375 -0.328125 0.34375 -0.578125q0.171875 -0.21875 0.46875 -0.375q0.296875 -0.171875 0.546875 -0.28125q0.328125 -0.125 1.3125 -0.453125q0.984375 -0.328125 1.328125 -0.515625l0 -0.703125q0 -0.09375 -0.046875 -0.359375q-0.03125 -0.265625 -0.15625 -0.5q-0.140625 -0.265625 -0.40625 -0.453125q-0.265625 -0.203125 -0.75 -0.203125q-0.328125 0 -0.609375 0.109375q-0.28125 0.109375 -0.390625 0.234375q0 0.140625 0.0625 0.421875q0.078125 0.28125 0.078125 0.515625q0 0.25 -0.234375 0.46875q-0.21875 0.203125 -0.625 0.203125q-0.359375 0 -0.53125 -0.25q-0.15625 -0.265625 -0.15625 -0.578125q0 -0.328125 0.21875 -0.625q0.234375 -0.3125 0.609375 -0.546875q0.328125 -0.203125 0.78125 -0.328125q0.453125 -0.140625 0.890625 -0.140625q0.609375 0 1.046875 0.078125q0.453125 0.078125 0.8125 0.359375q0.375 0.25 0.5625 0.71875q0.1875 0.453125 0.1875 1.15625q0 1.03125 -0.03125 1.828125q-0.015625 0.78125 -0.015625 1.71875q0 0.28125 0.09375 0.453125q0.109375 0.15625 0.3125 0.265625q0.09375 0.078125 0.328125 0.078125q0.234375 0 0.484375 0l0 0.46875zm-2.5 -3.78125q-0.609375 0.171875 -1.078125 0.34375q-0.453125 0.171875 -0.84375 0.4375q-0.359375 0.234375 -0.5625 0.578125q-0.203125 0.328125 -0.203125 0.78125q0 0.59375 0.3125 0.875q0.3125 0.28125 0.78125 0.28125q0.515625 0 0.890625 -0.25q0.390625 -0.25 0.65625 -0.578125l0.046875 -2.46875zm8.604126 -2.234375q0 0.359375 -0.1875 0.640625q-0.171875 0.28125 -0.546875 0.28125q-0.40625 0 -0.625 -0.203125q-0.203125 -0.203125 -0.203125 -0.453125q0 -0.171875 0.03125 -0.296875q0.03125 -0.125 0.046875 -0.25q-0.34375 0 -0.796875 0.28125q-0.4375 0.265625 -0.75 0.765625l0 4.09375q0 0.265625 0.09375 0.421875q0.09375 0.15625 0.296875 0.234375q0.1875 0.0625 0.46875 0.109375q0.28125 0.03125 0.484375 0.046875l0 0.46875l-3.71875 0l0 -0.46875q0.171875 -0.015625 0.34375 -0.03125q0.171875 -0.015625 0.296875 -0.0625q0.203125 -0.0625 0.296875 -0.21875q0.09375 -0.15625 0.09375 -0.421875l0 -4.359375q0 -0.21875 -0.109375 -0.4375q-0.09375 -0.21875 -0.28125 -0.34375q-0.140625 -0.078125 -0.328125 -0.109375q-0.171875 -0.046875 -0.390625 -0.0625l0 -0.46875l2.34375 -0.15625l0.109375 0.09375l0 1.0l0.03125 0q0.4375 -0.578125 0.984375 -0.875q0.546875 -0.3125 1.0 -0.3125q0.453125 0 0.734375 0.296875q0.28125 0.296875 0.28125 0.796875zm3.8635254 6.328125q-1.53125 0 -2.40625 -1.015625q-0.859375 -1.015625 -0.859375 -2.734375q0 -0.734375 0.234375 -1.375q0.234375 -0.65625 0.671875 -1.1875q0.421875 -0.515625 1.0625 -0.8125q0.640625 -0.3125 1.390625 -0.3125q1.03125 0 1.6875 0.5q0.65625 0.484375 0.65625 1.34375q0 0.359375 -0.171875 0.640625q-0.171875 0.265625 -0.578125 0.265625q-0.421875 0 -0.65625 -0.203125q-0.21875 -0.21875 -0.21875 -0.484375q0 -0.328125 0.078125 -0.65625q0.09375 -0.34375 0.09375 -0.5q-0.125 -0.21875 -0.375 -0.296875q-0.25 -0.078125 -0.546875 -0.078125q-0.34375 0 -0.65625 0.15625q-0.3125 0.140625 -0.609375 0.53125q-0.265625 0.359375 -0.4375 0.96875q-0.15625 0.609375 -0.15625 1.453125q0 1.328125 0.59375 2.171875q0.59375 0.84375 1.546875 0.84375q0.703125 0 1.171875 -0.34375q0.46875 -0.34375 0.859375 -1.015625l0.46875 0.3125q-0.484375 0.84375 -1.265625 1.34375q-0.765625 0.484375 -1.578125 0.484375zm9.655457 -1.84375q-0.4375 0.84375 -1.1875 1.34375q-0.734375 0.5 -1.703125 0.5q-0.859375 0 -1.5 -0.296875q-0.640625 -0.3125 -1.046875 -0.828125q-0.421875 -0.515625 -0.625 -1.1875q-0.203125 -0.6875 -0.203125 -1.453125q0 -0.6875 0.21875 -1.34375q0.21875 -0.671875 0.640625 -1.203125q0.40625 -0.515625 1.0 -0.8125q0.609375 -0.3125 1.375 -0.3125q0.765625 0 1.3125 0.25q0.5625 0.234375 0.90625 0.65625q0.328125 0.390625 0.484375 0.9375q0.15625 0.546875 0.15625 1.1875l0 0.46875l-4.671875 0q0 0.6875 0.125 1.265625q0.140625 0.5625 0.421875 0.984375q0.28125 0.421875 0.734375 0.671875q0.453125 0.234375 1.078125 0.234375q0.640625 0 1.09375 -0.296875q0.46875 -0.296875 0.890625 -1.078125l0.5 0.3125zm-1.578125 -2.6875q0 -0.40625 -0.078125 -0.859375q-0.0625 -0.46875 -0.203125 -0.765625q-0.171875 -0.34375 -0.46875 -0.546875q-0.28125 -0.203125 -0.71875 -0.203125q-0.75 0 -1.25 0.625q-0.5 0.625 -0.546875 1.75l3.265625 0zm9.084778 4.21875q-0.34375 0.125 -0.59375 0.1875q-0.25 0.078125 -0.578125 0.078125q-0.5625 0 -0.890625 -0.25q-0.328125 -0.265625 -0.421875 -0.765625l-0.046875 0q-0.46875 0.515625 -1.0 0.78125q-0.53125 0.265625 -1.28125 0.265625q-0.796875 0 -1.3125 -0.484375q-0.5 -0.484375 -0.5 -1.265625q0 -0.40625 0.109375 -0.734375q0.109375 -0.328125 0.34375 -0.578125q0.171875 -0.21875 0.46875 -0.375q0.296875 -0.171875 0.546875 -0.28125q0.328125 -0.125 1.3125 -0.453125q0.984375 -0.328125 1.328125 -0.515625l0 -0.703125q0 -0.09375 -0.046875 -0.359375q-0.03125 -0.265625 -0.15625 -0.5q-0.140625 -0.265625 -0.40625 -0.453125q-0.265625 -0.203125 -0.75 -0.203125q-0.328125 0 -0.609375 0.109375q-0.28125 0.109375 -0.390625 0.234375q0 0.140625 0.0625 0.421875q0.078125 0.28125 0.078125 0.515625q0 0.25 -0.234375 0.46875q-0.21875 0.203125 -0.625 0.203125q-0.359375 0 -0.53125 -0.25q-0.15625 -0.265625 -0.15625 -0.578125q0 -0.328125 0.21875 -0.625q0.234375 -0.3125 0.609375 -0.546875q0.328125 -0.203125 0.78125 -0.328125q0.453125 -0.140625 0.890625 -0.140625q0.609375 0 1.046875 0.078125q0.453125 0.078125 0.8125 0.359375q0.375 0.25 0.5625 0.71875q0.1875 0.453125 0.1875 1.15625q0 1.03125 -0.03125 1.828125q-0.015625 0.78125 -0.015625 1.71875q0 0.28125 0.09375 0.453125q0.109375 0.15625 0.3125 0.265625q0.09375 0.078125 0.328125 0.078125q0.234375 0 0.484375 0l0 0.46875zm-2.5 -3.78125q-0.609375 0.171875 -1.078125 0.34375q-0.453125 0.171875 -0.84375 0.4375q-0.359375 0.234375 -0.5625 0.578125q-0.203125 0.328125 -0.203125 0.78125q0 0.59375 0.3125 0.875q0.3125 0.28125 0.78125 0.28125q0.515625 0 0.890625 -0.25q0.390625 -0.25 0.65625 -0.578125l0.046875 -2.46875zm10.760376 3.78125l-2.296875 0.15625l-0.109375 -0.109375l0 -0.890625l-0.046875 0q-0.171875 0.1875 -0.390625 0.390625q-0.203125 0.203125 -0.484375 0.359375q-0.3125 0.203125 -0.625 0.296875q-0.296875 0.09375 -0.84375 0.09375q-0.9375 0 -1.4375 -0.609375q-0.484375 -0.609375 -0.484375 -1.78125l0 -3.375q0 -0.25 -0.09375 -0.421875q-0.09375 -0.1875 -0.28125 -0.3125q-0.125 -0.078125 -0.328125 -0.109375q-0.1875 -0.046875 -0.40625 -0.0625l0 -0.46875l2.359375 -0.171875l0.109375 0.09375l0 4.90625q0 0.765625 0.34375 1.15625q0.34375 0.390625 0.8125 0.390625q0.390625 0 0.703125 -0.125q0.3125 -0.125 0.515625 -0.296875q0.1875 -0.140625 0.328125 -0.3125q0.15625 -0.171875 0.234375 -0.3125l0 -4.0q0 -0.234375 -0.109375 -0.40625q-0.09375 -0.1875 -0.265625 -0.328125q-0.125 -0.078125 -0.390625 -0.09375q-0.25 -0.015625 -0.5625 -0.03125l0 -0.46875l2.5625 -0.171875l0.109375 0.09375l0 5.609375q0 0.25 0.09375 0.421875q0.109375 0.15625 0.28125 0.28125q0.125 0.078125 0.296875 0.109375q0.1875 0.03125 0.40625 0.03125l0 0.46875z" fill-rule="nonzero"/></g></svg>